<?xml version='1.0' encoding='UTF-8'?>
<!-- Created with Inkscape (http://www.inkscape.org/) and export_objects.py -->
<svg xmlns:cc="http://creativecommons.org/ns#" xmlns:dc="http://purl.org/dc/elements/1.1/" xmlns:inkscape="http://www.inkscape.org/namespaces/inkscape" xmlns:rdf="http://www.w3.org/1999/02/22-rdf-syntax-ns#" xmlns:sodipodi="http://sodipodi.sourceforge.net/DTD/sodipodi-0.dtd" xmlns:xlink="http://www.w3.org/1999/xlink" xmlns="http://www.w3.org/2000/svg" version="1.1" width="57.1499973542mm" height="88.9000026458mm" viewBox="0 0 57.1499973542 88.9000026458" id="svg23274" sodipodi:docname="89-1.svg"><sodipodi:namedview id="base" pagecolor="#ffffff" bordercolor="#666666" borderopacity="1.0" inkscape:pageopacity="0.0" inkscape:pageshadow="2" inkscape:zoom="0.35" inkscape:cx="-50" inkscape:cy="560" inkscape:document-units="mm" inkscape:current-layer="layer1" showgrid="false" inkscape:window-width="1920" inkscape:window-height="986" inkscape:window-x="-11" inkscape:window-y="-11" inkscape:window-maximized="1"/>
  <metadata id="metadata23271">
    <rdf:RDF>
      <cc:Work rdf:about="">
        <dc:format>image/svg+xml</dc:format>
        <dc:type rdf:resource="http://purl.org/dc/dcmitype/StillImage"/>
      </cc:Work>
    </rdf:RDF>
  </metadata>
  <g inkscape:groupmode="layer" inkscape:label="89-" transform="matrix(1.000000,0.000000,0.000000,1.000000,-255.663102,-100.603569)"><g id="g25344" inkscape:label="1">
      <rect y="100.60357" x="255.6631" height="88.900002" width="57.149998" id="rect4807" style="opacity:1;fill:#ffffff;fill-opacity:1;stroke:none;stroke-width:0.05;stroke-linecap:butt;stroke-linejoin:miter;stroke-miterlimit:47.14606857;stroke-dasharray:none;stroke-dashoffset:0;stroke-opacity:1;paint-order:markers fill stroke"/>
      <g id="g5341" transform="matrix(6.9910338,0,0,6.9910338,149.69761,-53.785129)" style="display:inline;stroke-width:0.14304036">
        <g style="fill:#82b5e1;fill-opacity:1;stroke-width:0.14304036" id="g5333" transform="matrix(0.35277777,0,0,0.35277777,-187.10776,-4.8860127)">
          <g transform="matrix(0.26458333,0,0,0.26458333,574.5918,91.9272)" id="g5331" style="stroke-width:0.14304036">
            <path style="stroke:none;stroke-width:0.14304036" d="m 4.4375,-21 c -0.210937,0.261719 -0.46875,0.546875 -0.78125,0.859375 -0.3125,0.3125 -0.636719,0.679687 -0.96875,1.09375 -0.324219,0.40625 -0.625,0.851562 -0.90625,1.328125 -0.28125,0.46875 -0.492187,0.984375 -0.625,1.546875 -0.1875,0.824219 -0.335937,1.59375 -0.4375,2.3125 -0.105469,0.71875 -0.167969,1.480469 -0.1875,2.28125 0,0.210937 0.03125,0.523437 0.09375,0.9375 0.070313,0.417969 0.171875,0.851562 0.296875,1.296875 0.132813,0.4375 0.269531,0.859375 0.40625,1.265625 0.144531,0.398437 0.273438,0.664062 0.390625,0.796875 0.1875,0.261719 0.414063,0.449219 0.6875,0.5625 0.28125,0.117187 0.515625,0.304687 0.703125,0.5625 0.1875,0.230469 0.394531,0.5625 0.625,1 0.238281,0.429687 0.519531,0.726562 0.84375,0.890625 0.5625,0.25 1.242188,0.46875 2.046875,0.65625 0.8125,0.1875 1.640625,0.289062 2.484375,0.296875 0.851563,0.011719 1.6875,-0.070313 2.5,-0.25 0.820313,-0.1875 1.523438,-0.539063 2.109375,-1.0625 0.394531,-0.34375 0.835938,-0.710938 1.328125,-1.109375 0.488281,-0.394531 0.898438,-0.722656 1.234375,-0.984375 C 16.644531,-7 17.035156,-7.410156 17.453125,-7.953125 17.878906,-8.503906 18.257813,-9.125 18.59375,-9.8125 c 0.34375,-0.6875 0.613281,-1.410156 0.8125,-2.171875 0.195313,-0.757813 0.269531,-1.492188 0.21875,-2.203125 -0.04297,-0.71875 -0.246094,-1.367188 -0.609375,-1.953125 -0.355469,-0.582031 -0.929687,-1.035156 -1.71875,-1.359375 -0.40625,-0.1875 -0.882812,-0.441406 -1.421875,-0.765625 -0.53125,-0.332031 -1.007812,-0.566406 -1.421875,-0.703125 -0.230469,-0.09375 -0.511719,-0.144531 -0.84375,-0.15625 -0.324219,-0.0078 -0.664062,-0.0078 -1.015625,0 -0.34375,0.01172 -0.695312,0.03906 -1.046875,0.07813 -0.34375,0.03125 -0.65625,0.05859 -0.9375,0.07813 -0.03125,0 -0.0078,0.02734 0.07813,0.07813 0.08203,0.04297 0.175781,0.08984 0.28125,0.140625 0.101563,0.04297 0.207031,0.09375 0.3125,0.15625 0.101563,0.05469 0.15625,0.105469 0.15625,0.15625 -0.04297,0.324219 -0.1875,0.667969 -0.4375,1.03125 -0.242187,0.355469 -0.417969,0.699219 -0.53125,1.03125 -0.117187,0.34375 -0.164062,0.726562 -0.140625,1.140625 0.01953,0.40625 0.01953,0.808594 0,1.203125 0,0.28125 0.02344,0.5625 0.07813,0.84375 0.0625,0.273437 0.132813,0.539062 0.21875,0.796875 0.08203,0.261719 0.148438,0.496094 0.203125,0.703125 0.0625,0.210937 0.08203,0.398437 0.0625,0.5625 -0.03125,0.09375 -0.199219,0.148437 -0.5,0.15625 -0.304687,0.01172 -0.636719,0.0078 -1,-0.01563 -0.355469,-0.03125 -0.6875,-0.0625 -1,-0.09375 C 8.085938,-11.109375 7.9375,-11.125 7.9375,-11.125 c 0,-0.05078 0.019531,0 0.0625,0.15625 0.050781,0.148437 0.054688,0.28125 0.015625,0.40625 -0.054687,0.230469 -0.074219,0.539062 -0.0625,0.921875 0.019531,0.386719 -0.101562,0.648437 -0.359375,0.78125 -0.023437,0.03125 -0.132812,-0.019531 -0.328125,-0.15625 -0.199219,-0.144531 -0.40625,-0.316406 -0.625,-0.515625 -0.210937,-0.195313 -0.40625,-0.382813 -0.59375,-0.5625 -0.179687,-0.175781 -0.28125,-0.300781 -0.3125,-0.375 -0.042969,-0.0625 -0.070312,-0.234375 -0.078125,-0.515625 -0.011719,-0.28125 -0.042969,-0.445313 -0.09375,-0.5 -0.09375,-0.132813 -0.21875,-0.191406 -0.375,-0.171875 -0.148437,0.02344 -0.308594,0.0625 -0.484375,0.125 -0.179687,0.0625 -0.355469,0.105469 -0.53125,0.125 -0.167969,0.02344 -0.335937,-0.05078 -0.5,-0.21875 -0.210937,-0.207031 -0.40625,-0.476563 -0.59375,-0.8125 C 2.890625,-12.78125 2.75,-13.160156 2.65625,-13.578125 2.5625,-13.992188 2.535156,-14.4375 2.578125,-14.90625 2.628906,-15.375 2.785156,-15.816406 3.046875,-16.234375 3.179688,-16.472656 3.289063,-16.6875 3.375,-16.875 c 0.082031,-0.1875 0.140625,-0.363281 0.171875,-0.53125 0.039063,-0.175781 0.082031,-0.363281 0.125,-0.5625 0.050781,-0.195313 0.109375,-0.414063 0.171875,-0.65625 0.070313,-0.226563 0.097656,-0.453125 0.078125,-0.671875 -0.023437,-0.226563 0,-0.457031 0.0625,-0.6875 0.070313,-0.226563 0.171875,-0.378906 0.296875,-0.453125 0.132813,-0.07031 0.203125,-0.25 0.203125,-0.53125 z m 3.15625,13.328125 c 0.019531,0.125 0.023438,0.214844 0.015625,0.265625 -0.011719,0.042969 -0.015625,0.085937 -0.015625,0.125 -0.042969,0 -0.089844,0.027344 -0.140625,0.078125 -0.042969,-0.144531 -0.0625,-0.226563 -0.0625,-0.25 0,-0.070313 0.03125,-0.144531 0.09375,-0.21875 z m 5.109375,-3.421875 c 0.01953,0.02344 0.05469,0.152344 0.109375,0.390625 -0.05469,0.02344 -0.105469,0.07031 -0.15625,0.140625 -0.04297,0.0625 -0.09375,0.04687 -0.15625,-0.04687 -0.05469,-0.03906 -0.08594,-0.101563 -0.09375,-0.1875 -0.01172,-0.08203 0.01953,-0.179688 0.09375,-0.296875 z m -8.15625,1.75 c 0.070313,0 0.109375,0.011719 0.109375,0.03125 0,0 0.046875,0.027344 0.140625,0.078125 -0.023437,0.042969 -0.058594,0.085937 -0.109375,0.125 -0.042969,0.03125 -0.042969,0.085937 0,0.15625 C 4.644531,-8.953125 4.625,-8.96875 4.625,-9 c 0,-0.019531 -0.027344,-0.03125 -0.078125,-0.03125 -0.023437,0 -0.03125,0.027344 -0.03125,0.078125 H 4.34375 c 0,-0.050781 -0.015625,-0.085938 -0.046875,-0.109375 -0.023437,-0.019531 -0.03125,-0.054688 -0.03125,-0.109375 0,-0.039063 0.035156,-0.078125 0.109375,-0.109375 0.070313,-0.039063 0.128906,-0.0625 0.171875,-0.0625 z m 6.765625,-5.390625 c 0.113281,0.04297 0.191406,0.109375 0.234375,0.203125 0.01953,0 0.03125,-0.03125 0.03125,-0.09375 0.125,0.04297 0.1875,0.109375 0.1875,0.203125 0,0.05469 -0.02734,0.105469 -0.07813,0.15625 -0.04297,0.04297 -0.07813,0.08594 -0.109375,0.125 -0.04297,-0.01953 -0.101562,-0.03125 -0.171875,-0.03125 0.01953,-0.07031 0.0078,-0.132813 -0.03125,-0.1875 -0.04297,-0.0625 -0.0625,-0.117188 -0.0625,-0.171875 z M 2.03125,-14.5625 2,-14.171875 c -0.054687,0 -0.101562,0.07031 -0.140625,0.203125 -0.03125,0.07422 -0.046875,0.132812 -0.046875,0.171875 0,0.03125 0.023438,0.09375 0.078125,0.1875 l 0.0625,-0.1875 c 0.09375,0.07422 0.15625,0.109375 0.1875,0.109375 C 2.109375,-13.445313 2.0625,-13.328125 2,-13.328125 c -0.125,0 -0.21875,-0.05469 -0.28125,-0.171875 -0.054687,-0.125 -0.078125,-0.207031 -0.078125,-0.25 0,-0.05078 0.00781,-0.08203 0.03125,-0.09375 0.03125,-0.0078 0.046875,-0.03906 0.046875,-0.09375 0,-0.03906 -0.015625,-0.05078 -0.046875,-0.03125 -0.023437,0.02344 -0.03125,0.01172 -0.03125,-0.03125 0,-0.03906 0.015625,-0.113281 0.046875,-0.21875 0.039063,-0.113281 0.082031,-0.21875 0.125,-0.3125 z M 0.171875,-12.25 c 0,-1.675781 0.316406,-3.253906 0.953125,-4.734375 0.644531,-1.488281 1.515625,-2.78125 2.609375,-3.875 1.101563,-1.09375 2.394531,-1.960938 3.875,-2.609375 1.476563,-0.644531 3.0625,-0.96875 4.75,-0.96875 1.675781,0 3.25,0.324219 4.71875,0.96875 1.46875,0.648437 2.753906,1.515625 3.859375,2.609375 1.113281,1.09375 1.984375,2.386719 2.609375,3.875 C 24.179688,-15.503906 24.5,-13.925781 24.5,-12.25 c 0,1.679687 -0.320312,3.257812 -0.953125,4.734375 -0.625,1.46875 -1.496094,2.757812 -2.609375,3.859375 -1.105469,1.105469 -2.390625,1.976562 -3.859375,2.609375 -1.46875,0.625 -3.042969,0.9375 -4.71875,0.9375 -1.6875,0 -3.273437,-0.3125 -4.75,-0.9375 C 6.128906,-1.679688 4.835938,-2.550781 3.734375,-3.65625 2.640625,-4.757813 1.769531,-6.046875 1.125,-7.515625 0.488281,-8.992188 0.171875,-10.570313 0.171875,-12.25 Z m 0,0" id="path5329" inkscape:connector-curvature="0"/>
          </g>
        </g>
        <g style="fill:#211e1e;fill-opacity:1;stroke-width:0.14304036" id="g5339" transform="matrix(0.35277777,0,0,0.35277777,-187.10776,-4.8860127)">
          <g transform="matrix(0.26458333,0,0,0.26458333,574.5918,91.9272)" id="g5337" style="stroke-width:0.14304036">
            <path style="stroke:none;stroke-width:0.14304036" d="m 4.4375,-21 c -0.210937,0.261719 -0.46875,0.546875 -0.78125,0.859375 -0.3125,0.3125 -0.636719,0.679687 -0.96875,1.09375 -0.324219,0.40625 -0.625,0.851562 -0.90625,1.328125 -0.28125,0.46875 -0.492187,0.984375 -0.625,1.546875 -0.1875,0.824219 -0.335937,1.59375 -0.4375,2.3125 -0.105469,0.71875 -0.167969,1.480469 -0.1875,2.28125 0,0.210937 0.03125,0.523437 0.09375,0.9375 0.070313,0.417969 0.171875,0.851562 0.296875,1.296875 0.132813,0.4375 0.269531,0.859375 0.40625,1.265625 0.144531,0.398437 0.273438,0.664062 0.390625,0.796875 0.1875,0.261719 0.414063,0.449219 0.6875,0.5625 0.28125,0.117187 0.515625,0.304687 0.703125,0.5625 0.1875,0.230469 0.394531,0.5625 0.625,1 0.238281,0.429687 0.519531,0.726562 0.84375,0.890625 0.5625,0.25 1.242188,0.46875 2.046875,0.65625 0.8125,0.1875 1.640625,0.289062 2.484375,0.296875 0.851563,0.011719 1.6875,-0.070313 2.5,-0.25 0.820313,-0.1875 1.523438,-0.539063 2.109375,-1.0625 0.394531,-0.34375 0.835938,-0.710938 1.328125,-1.109375 0.488281,-0.394531 0.898438,-0.722656 1.234375,-0.984375 C 16.644531,-7 17.035156,-7.410156 17.453125,-7.953125 17.878906,-8.503906 18.257813,-9.125 18.59375,-9.8125 c 0.34375,-0.6875 0.613281,-1.410156 0.8125,-2.171875 0.195313,-0.757813 0.269531,-1.492188 0.21875,-2.203125 -0.04297,-0.71875 -0.246094,-1.367188 -0.609375,-1.953125 -0.355469,-0.582031 -0.929687,-1.035156 -1.71875,-1.359375 -0.40625,-0.1875 -0.882812,-0.441406 -1.421875,-0.765625 -0.53125,-0.332031 -1.007812,-0.566406 -1.421875,-0.703125 -0.230469,-0.09375 -0.511719,-0.144531 -0.84375,-0.15625 -0.324219,-0.0078 -0.664062,-0.0078 -1.015625,0 -0.34375,0.01172 -0.695312,0.03906 -1.046875,0.07813 -0.34375,0.03125 -0.65625,0.05859 -0.9375,0.07813 -0.03125,0 -0.0078,0.02734 0.07813,0.07813 0.08203,0.04297 0.175781,0.08984 0.28125,0.140625 0.101563,0.04297 0.207031,0.09375 0.3125,0.15625 0.101563,0.05469 0.15625,0.105469 0.15625,0.15625 -0.04297,0.324219 -0.1875,0.667969 -0.4375,1.03125 -0.242187,0.355469 -0.417969,0.699219 -0.53125,1.03125 -0.117187,0.34375 -0.164062,0.726562 -0.140625,1.140625 0.01953,0.40625 0.01953,0.808594 0,1.203125 0,0.28125 0.02344,0.5625 0.07813,0.84375 0.0625,0.273437 0.132813,0.539062 0.21875,0.796875 0.08203,0.261719 0.148438,0.496094 0.203125,0.703125 0.0625,0.210937 0.08203,0.398437 0.0625,0.5625 -0.03125,0.09375 -0.199219,0.148437 -0.5,0.15625 -0.304687,0.01172 -0.636719,0.0078 -1,-0.01563 -0.355469,-0.03125 -0.6875,-0.0625 -1,-0.09375 C 8.085938,-11.109375 7.9375,-11.125 7.9375,-11.125 c 0,-0.05078 0.019531,0 0.0625,0.15625 0.050781,0.148437 0.054688,0.28125 0.015625,0.40625 -0.054687,0.230469 -0.074219,0.539062 -0.0625,0.921875 0.019531,0.386719 -0.101562,0.648437 -0.359375,0.78125 -0.023437,0.03125 -0.132812,-0.019531 -0.328125,-0.15625 -0.199219,-0.144531 -0.40625,-0.316406 -0.625,-0.515625 -0.210937,-0.195313 -0.40625,-0.382813 -0.59375,-0.5625 -0.179687,-0.175781 -0.28125,-0.300781 -0.3125,-0.375 -0.042969,-0.0625 -0.070312,-0.234375 -0.078125,-0.515625 -0.011719,-0.28125 -0.042969,-0.445313 -0.09375,-0.5 -0.09375,-0.132813 -0.21875,-0.191406 -0.375,-0.171875 -0.148437,0.02344 -0.308594,0.0625 -0.484375,0.125 -0.179687,0.0625 -0.355469,0.105469 -0.53125,0.125 -0.167969,0.02344 -0.335937,-0.05078 -0.5,-0.21875 -0.210937,-0.207031 -0.40625,-0.476563 -0.59375,-0.8125 C 2.890625,-12.78125 2.75,-13.160156 2.65625,-13.578125 2.5625,-13.992188 2.535156,-14.4375 2.578125,-14.90625 2.628906,-15.375 2.785156,-15.816406 3.046875,-16.234375 3.179688,-16.472656 3.289063,-16.6875 3.375,-16.875 c 0.082031,-0.1875 0.140625,-0.363281 0.171875,-0.53125 0.039063,-0.175781 0.082031,-0.363281 0.125,-0.5625 0.050781,-0.195313 0.109375,-0.414063 0.171875,-0.65625 0.070313,-0.226563 0.097656,-0.453125 0.078125,-0.671875 -0.023437,-0.226563 0,-0.457031 0.0625,-0.6875 0.070313,-0.226563 0.171875,-0.378906 0.296875,-0.453125 0.132813,-0.07031 0.203125,-0.25 0.203125,-0.53125 z m 3.15625,13.328125 c 0.019531,0.125 0.023438,0.214844 0.015625,0.265625 -0.011719,0.042969 -0.015625,0.085937 -0.015625,0.125 -0.042969,0 -0.089844,0.027344 -0.140625,0.078125 -0.042969,-0.144531 -0.0625,-0.226563 -0.0625,-0.25 0,-0.070313 0.03125,-0.144531 0.09375,-0.21875 z m 5.109375,-3.421875 c 0.01953,0.02344 0.05469,0.152344 0.109375,0.390625 -0.05469,0.02344 -0.105469,0.07031 -0.15625,0.140625 -0.04297,0.0625 -0.09375,0.04687 -0.15625,-0.04687 -0.05469,-0.03906 -0.08594,-0.101563 -0.09375,-0.1875 -0.01172,-0.08203 0.01953,-0.179688 0.09375,-0.296875 z m -8.15625,1.75 c 0.070313,0 0.109375,0.011719 0.109375,0.03125 0,0 0.046875,0.027344 0.140625,0.078125 -0.023437,0.042969 -0.058594,0.085937 -0.109375,0.125 -0.042969,0.03125 -0.042969,0.085937 0,0.15625 C 4.644531,-8.953125 4.625,-8.96875 4.625,-9 c 0,-0.019531 -0.027344,-0.03125 -0.078125,-0.03125 -0.023437,0 -0.03125,0.027344 -0.03125,0.078125 H 4.34375 c 0,-0.050781 -0.015625,-0.085938 -0.046875,-0.109375 -0.023437,-0.019531 -0.03125,-0.054688 -0.03125,-0.109375 0,-0.039063 0.035156,-0.078125 0.109375,-0.109375 0.070313,-0.039063 0.128906,-0.0625 0.171875,-0.0625 z m 6.765625,-5.390625 c 0.113281,0.04297 0.191406,0.109375 0.234375,0.203125 0.01953,0 0.03125,-0.03125 0.03125,-0.09375 0.125,0.04297 0.1875,0.109375 0.1875,0.203125 0,0.05469 -0.02734,0.105469 -0.07813,0.15625 -0.04297,0.04297 -0.07813,0.08594 -0.109375,0.125 -0.04297,-0.01953 -0.101562,-0.03125 -0.171875,-0.03125 0.01953,-0.07031 0.0078,-0.132813 -0.03125,-0.1875 -0.04297,-0.0625 -0.0625,-0.117188 -0.0625,-0.171875 z M 2.03125,-14.5625 2,-14.171875 c -0.054687,0 -0.101562,0.07031 -0.140625,0.203125 -0.03125,0.07422 -0.046875,0.132812 -0.046875,0.171875 0,0.03125 0.023438,0.09375 0.078125,0.1875 l 0.0625,-0.1875 c 0.09375,0.07422 0.15625,0.109375 0.1875,0.109375 C 2.109375,-13.445313 2.0625,-13.328125 2,-13.328125 c -0.125,0 -0.21875,-0.05469 -0.28125,-0.171875 -0.054687,-0.125 -0.078125,-0.207031 -0.078125,-0.25 0,-0.05078 0.00781,-0.08203 0.03125,-0.09375 0.03125,-0.0078 0.046875,-0.03906 0.046875,-0.09375 0,-0.03906 -0.015625,-0.05078 -0.046875,-0.03125 -0.023437,0.02344 -0.03125,0.01172 -0.03125,-0.03125 0,-0.03906 0.015625,-0.113281 0.046875,-0.21875 0.039063,-0.113281 0.082031,-0.21875 0.125,-0.3125 z m 14.875,-6.6875 c 0.03906,0 0.117188,0.02734 0.234375,0.07813 0.125,0.04297 0.265625,0.101562 0.421875,0.171875 0.164063,0.07422 0.320313,0.152344 0.46875,0.234375 0.15625,0.07422 0.28125,0.136719 0.375,0.1875 0.164063,0.07422 0.316406,0.210937 0.453125,0.40625 0.144531,0.199219 0.226563,0.375 0.25,0.53125 1.070313,1.03125 1.816406,2.515625 2.234375,4.453125 0.07031,0.34375 0.125,0.6875 0.15625,1.03125 0.03906,0.335937 0.0625,0.640625 0.0625,0.921875 0,0.28125 0,0.515625 0,0.703125 0,0.1875 0,0.292969 0,0.3125 -0.05469,0.679687 -0.25,1.382812 -0.59375,2.109375 -0.335937,0.71875 -0.730469,1.289062 -1.1875,1.703125 H 19.5625 V -8.5 c 0.113281,-0.070313 0.222656,-0.175781 0.328125,-0.3125 0.113281,-0.144531 0.226563,-0.273438 0.34375,-0.390625 C 20.535156,-9.765625 20.75,-10.257813 20.875,-10.6875 21,-11.125 21.078125,-11.5625 21.109375,-12 c 0.03906,-0.445313 0.03906,-0.921875 0,-1.421875 -0.03125,-0.5 -0.07813,-1.097656 -0.140625,-1.796875 -0.210937,-0.488281 -0.371094,-0.882813 -0.484375,-1.1875 -0.105469,-0.3125 -0.214844,-0.585938 -0.328125,-0.828125 -0.117187,-0.25 -0.257812,-0.5 -0.421875,-0.75 -0.15625,-0.257813 -0.375,-0.578125 -0.65625,-0.953125 -0.148437,-0.207031 -0.375,-0.367188 -0.6875,-0.484375 C 18.078125,-19.535156 17.75,-19.644531 17.40625,-19.75 17.070313,-19.863281 16.769531,-19.992188 16.5,-20.140625 c -0.273437,-0.15625 -0.417969,-0.347656 -0.4375,-0.578125 -0.02344,-0.164063 0.02344,-0.28125 0.140625,-0.34375 0.113281,-0.07031 0.207031,-0.132813 0.28125,-0.1875 z m 4.515625,14.1875 c -0.5625,0.117187 -1.117187,0.273437 -1.65625,0.46875 -0.53125,0.199219 -1.03125,0.460937 -1.5,0.78125 -0.375,0.261719 -0.664062,0.578125 -0.859375,0.953125 -0.199219,0.367187 -0.515625,0.761719 -0.953125,1.1875 -0.375,0.324219 -0.761719,0.65625 -1.15625,1 -0.398437,0.335937 -0.828125,0.59375 -1.296875,0.78125 -0.324219,0.28125 -0.695312,0.496094 -1.109375,0.640625 -0.40625,0.136719 -0.808594,0.296875 -1.203125,0.484375 0.05078,0.042969 0.234375,0.109375 0.546875,0.203125 0.3125,0.09375 0.597656,0.132812 0.859375,0.109375 0.414063,-0.050781 0.769531,-0.09375 1.0625,-0.125 0.289063,-0.03125 0.554688,-0.082031 0.796875,-0.15625 0.25,-0.070313 0.492188,-0.144531 0.734375,-0.21875 0.25,-0.082031 0.5625,-0.171875 0.9375,-0.265625 0.71875,-0.28125 1.40625,-0.660156 2.0625,-1.140625 0.65625,-0.476563 1.171875,-1 1.546875,-1.5625 C 20.367188,-4.109375 20.5,-4.3125 20.625,-4.53125 20.757813,-4.75 20.929688,-4.90625 21.140625,-5 L 20.75,-5.046875 c -0.375,0.125 -0.75,0.203125 -1.125,0.234375 -0.367187,0.03125 -0.679687,0.09375 -0.9375,0.1875 -0.136719,0.148437 -0.234375,0.324219 -0.296875,0.53125 -0.05469,0.210937 -0.109375,0.40625 -0.171875,0.59375 -0.0625,0.1875 -0.140625,0.367187 -0.234375,0.53125 -0.09375,0.15625 -0.246094,0.273437 -0.453125,0.34375 -0.0625,0.09375 -0.164062,0.179687 -0.296875,0.25 -0.125,0.0625 -0.246094,0.121094 -0.359375,0.171875 C 16.726563,-2.109375 16.460938,-2 16.078125,-1.875 c -0.386719,0.125 -0.671875,0.1875 -0.859375,0.1875 0,0 -0.04687,0.027344 -0.140625,0.078125 -0.09375,0.042969 -0.195312,0.09375 -0.296875,0.15625 -0.105469,0.0625 -0.203125,0.121094 -0.296875,0.171875 -0.09375,0.042969 -0.140625,0.0625 -0.140625,0.0625 -0.02344,0 -0.04297,-0.015625 -0.0625,-0.046875 -0.148437,0 -0.242187,0 -0.28125,0 -0.02344,0 -0.04297,-0.00781 -0.0625,-0.03125 0.300781,-0.207031 0.632813,-0.367188 1,-0.484375 0.375,-0.113281 0.75,-0.234375 1.125,-0.359375 0.332031,-0.09375 0.617188,-0.222656 0.859375,-0.390625 0.25,-0.175781 0.507813,-0.359375 0.78125,-0.546875 -0.02344,-0.070313 -0.0078,-0.160156 0.04687,-0.265625 0.0625,-0.101563 0.128906,-0.210938 0.203125,-0.328125 0.07031,-0.113281 0.132813,-0.222656 0.1875,-0.328125 0.0625,-0.113281 0.08203,-0.191406 0.0625,-0.234375 -0.05469,-0.070313 -0.04687,-0.144531 0.01563,-0.21875 0.0625,-0.082031 0.144531,-0.171875 0.25,-0.265625 0.101563,-0.09375 0.210938,-0.171875 0.328125,-0.234375 0.113281,-0.0625 0.207031,-0.09375 0.28125,-0.09375 0.207031,-0.019531 0.382813,-0.023438 0.53125,-0.015625 0.15625,0.011719 0.46875,-0.015625 0.9375,-0.078125 0.226563,-0.113281 0.476563,-0.1875 0.75,-0.21875 0.269531,-0.039063 0.507813,-0.109375 0.71875,-0.203125 0.07031,-0.113281 0.164063,-0.234375 0.28125,-0.359375 0.113281,-0.132813 0.226563,-0.257813 0.34375,-0.375 0,-0.164063 0.05469,-0.269531 0.171875,-0.3125 v -0.21875 C 22.695313,-6.847656 22.582031,-6.859375 22.46875,-6.859375 22.375,-6.859375 22.304688,-6.90625 22.265625,-7 22.003906,-7 21.84375,-7.007813 21.78125,-7.03125 21.726563,-7.050781 21.609375,-7.0625 21.421875,-7.0625 Z m -11.40625,-5.296875 c -0.304687,-0.320313 -0.5,-0.675781 -0.59375,-1.0625 -0.09375,-0.382813 -0.203125,-0.773438 -0.328125,-1.171875 0.09375,-0.164063 0.109375,-0.269531 0.046875,-0.3125 -0.054687,-0.05078 -0.078125,-0.09766 -0.078125,-0.140625 0,-0.113281 0.035156,-0.222656 0.109375,-0.328125 0.070313,-0.113281 0.15625,-0.171875 0.25,-0.171875 0.0625,0 0.160156,0.03906 0.296875,0.109375 0.144531,0.07422 0.242188,0.121094 0.296875,0.140625 0,-0.226563 -0.039062,-0.410156 -0.109375,-0.546875 -0.074219,-0.144531 -0.132812,-0.265625 -0.171875,-0.359375 v -0.625 H 9.9375 C 9.957031,-16.921875 9.94141,-17.03125 9.890625,-17.15625 9.847656,-17.289063 9.769531,-17.40625 9.65625,-17.5 v -0.671875 c 0.144531,-0.269531 0.265625,-0.5625 0.359375,-0.875 0.09375,-0.320313 0.234375,-0.625 0.421875,-0.90625 0.08203,0 0.171875,-0.01953 0.265625,-0.0625 0.05078,-0.113281 0.132813,-0.195313 0.25,-0.25 0.113281,-0.03906 0.222656,-0.03516 0.328125,0.01563 0.101563,0.04297 0.21875,0.08594 0.34375,0.125 0.03906,-0.07031 0.06641,-0.140625 0.07813,-0.203125 0.0078,-0.07031 0.03125,-0.132813 0.0625,-0.1875 0.03906,-0.01953 0.125,-0.08594 0.25,-0.203125 0.132813,-0.113281 0.28125,-0.234375 0.4375,-0.359375 0.164063,-0.132813 0.328125,-0.253906 0.484375,-0.359375 0.164063,-0.101563 0.320313,-0.15625 0.46875,-0.15625 h 1.078125 c 0.300781,0.117187 0.613281,0.04687 0.9375,-0.203125 0.332031,-0.257813 0.617188,-0.4375 0.859375,-0.53125 0.03906,-0.05078 0.07031,-0.09766 0.09375,-0.140625 0.03125,-0.05078 0.06641,-0.09766 0.109375,-0.140625 0.05078,-0.05078 0.175781,-0.113281 0.375,-0.1875 0.195313,-0.08203 0.296875,-0.132813 0.296875,-0.15625 0,-0.05078 -0.101562,-0.125 -0.296875,-0.21875 -0.199219,-0.09375 -0.421875,-0.1875 -0.671875,-0.28125 -0.25,-0.09375 -0.480469,-0.175781 -0.6875,-0.25 -0.210937,-0.08203 -0.335937,-0.125 -0.375,-0.125 -0.28125,-0.125 -0.484375,-0.175781 -0.609375,-0.15625 -0.117187,0.01172 -0.230469,0 -0.34375,-0.03125 -0.1875,0.125 -0.367187,0.246094 -0.53125,0.359375 -0.15625,0.117187 -0.292969,0.265625 -0.40625,0.453125 -0.03125,0.07422 -0.07031,0.242187 -0.109375,0.5 -0.04297,0.25 -0.15625,0.375 -0.34375,0.375 -0.07422,0 -0.140625,-0.02344 -0.203125,-0.07813 -0.05469,-0.0625 -0.125,-0.09375 -0.21875,-0.09375 -0.117187,0 -0.257812,0.08594 -0.421875,0.25 -0.167969,0.15625 -0.335937,0.234375 -0.5,0.234375 -0.179687,0 -0.292969,-0.01953 -0.34375,-0.0625 -0.04297,-0.05078 -0.101562,-0.07813 -0.171875,-0.07813 -0.05469,0 -0.15625,0.07031 -0.3125,0.203125 -0.148437,0.125 -0.417969,0.359375 -0.8125,0.703125 -0.023437,0.03125 -0.039062,0.03125 -0.046875,0 -0.011719,-0.03906 -0.121094,-0.0625 -0.328125,-0.0625 -0.03125,0.04297 -0.078125,0.0625 -0.140625,0.0625 -0.125,0 -0.1875,-0.05469 -0.1875,-0.171875 0,-0.07031 0.00781,-0.113281 0.03125,-0.125 0.03125,-0.0078 0.066406,-0.05078 0.109375,-0.125 h 0.53125 c 0.113281,-0.03906 0.222656,-0.101563 0.328125,-0.1875 0.101563,-0.08203 0.203125,-0.144531 0.296875,-0.1875 0.03125,-0.113281 0.08594,-0.234375 0.171875,-0.359375 0.09375,-0.132813 0.234375,-0.203125 0.421875,-0.203125 0.05078,0 0.109375,0.05859 0.171875,0.171875 0.07031,0.117187 0.15625,0.171875 0.25,0.171875 h 0.109375 c 0.09375,-0.113281 0.179688,-0.195313 0.265625,-0.25 0.08203,-0.0625 0.171875,-0.148438 0.265625,-0.265625 0.25,-0.113281 0.414063,-0.128906 0.5,-0.04687 0.08203,0.07422 0.171875,0.121094 0.265625,0.140625 0.03906,-0.25 0.113281,-0.5 0.21875,-0.75 0.101563,-0.257813 0.25,-0.460938 0.4375,-0.609375 -0.34375,0 -0.617187,-0.0039 -0.8125,-0.01563 -0.199219,-0.0078 -0.382812,-0.01563 -0.546875,-0.01563 -0.167969,0 -0.351562,0.01172 -0.546875,0.03125 -0.199219,0.02344 -0.46875,0.05859 -0.8125,0.109375 -0.824219,0.117187 -1.636719,0.320312 -2.4375,0.609375 -0.804687,0.292969 -1.542969,0.648437 -2.21875,1.0625 -0.074219,0.05469 -0.25,0.164062 -0.53125,0.328125 -0.28125,0.15625 -0.421875,0.339844 -0.421875,0.546875 0,0.28125 -0.039062,0.542969 -0.109375,0.78125 -0.0625,0.230469 -0.15625,0.46875 -0.28125,0.71875 -0.117187,0.242187 -0.242187,0.5 -0.375,0.78125 -0.136719,0.28125 -0.265625,0.632812 -0.390625,1.046875 0,0.46875 -0.00781,0.730469 -0.015625,0.78125 -0.011719,0.04297 -0.015625,0.08594 -0.015625,0.125 0,0.1875 0.00391,0.324219 0.015625,0.40625 0.00781,0.08594 0.015625,0.164062 0.015625,0.234375 0,0.04297 0,0.109375 0,0.203125 0,0.09375 -0.011719,0.261719 -0.03125,0.5 0,0.179687 -0.105469,0.402344 -0.3125,0.671875 -0.210937,0.273437 -0.3125,0.539062 -0.3125,0.796875 0,0.0625 -0.00781,0.164062 -0.015625,0.296875 -0.011719,0.125 -0.015625,0.234375 -0.015625,0.328125 0,0.136719 0.054688,0.335937 0.171875,0.59375 0.113281,0.261719 0.207031,0.460937 0.28125,0.59375 0.039063,0.02344 0.085938,0.07031 0.140625,0.140625 0.0625,0.07422 0.128906,0.136719 0.203125,0.1875 0.070313,0.04297 0.128906,0.07031 0.171875,0.07813 0.050781,0.01172 0.078125,-0.01953 0.078125,-0.09375 v -1.328125 c 0,-0.07031 0.054688,-0.222656 0.171875,-0.453125 0.113281,-0.226563 0.207031,-0.34375 0.28125,-0.34375 0.113281,0 0.210938,0.04297 0.296875,0.125 0.082031,0.07422 0.160156,0.15625 0.234375,0.25 0.082031,0.09375 0.171875,0.179687 0.265625,0.25 0.09375,0.07422 0.1875,0.109375 0.28125,0.109375 0.144531,0.0625 0.234375,0.167969 0.265625,0.3125 0.03125,0.136719 0.082031,0.25 0.15625,0.34375 0,0.1875 0,0.328125 0,0.421875 0,0.09375 -0.00781,0.183594 -0.015625,0.265625 -0.011719,0.08594 -0.015625,0.171875 -0.015625,0.265625 0,0.0625 0,0.1875 0,0.375 0,0.09375 0.023438,0.226562 0.078125,0.390625 0.0625,0.167969 0.140625,0.324219 0.234375,0.46875 0.09375,0.136719 0.195313,0.257812 0.3125,0.359375 C 7.003906,-10.300781 7.125,-10.25 7.25,-10.25 c 0.039063,0 0.078125,-0.03516 0.109375,-0.109375 0.039063,-0.07031 0.0625,-0.117188 0.0625,-0.140625 0,-0.03906 -0.023437,-0.09375 -0.0625,-0.15625 C 7.328125,-10.71875 7.289063,-10.769531 7.25,-10.8125 l -0.21875,-1.375 c 0.09375,-0.207031 0.164063,-0.34375 0.21875,-0.40625 0.0625,-0.07031 0.132813,-0.101563 0.21875,-0.09375 0.082031,0.01172 0.179688,0.03906 0.296875,0.07813 0.113281,0.03125 0.28125,0.04687 0.5,0.04687 0.019531,0.04297 0.085938,0.109375 0.203125,0.203125 0.113281,0.09375 0.238281,0.195312 0.375,0.296875 0.144531,0.105469 0.289063,0.199219 0.4375,0.28125 0.15625,0.08594 0.28125,0.125 0.375,0.125 0.09375,0 0.222656,-0.06641 0.390625,-0.203125 z M 12.25,-20.4375 c -0.02344,0.02344 -0.04297,0.03125 -0.0625,0.03125 0.226563,0.02344 0.398438,0.04297 0.515625,0.0625 0.113281,0.01172 0.21875,0.02344 0.3125,0.03125 0.09375,0.01172 0.1875,0.02734 0.28125,0.04687 0.09375,0.02344 0.222656,0.05859 0.390625,0.109375 0.375,0.117187 0.6875,0.230469 0.9375,0.34375 0.257813,0.117187 0.503906,0.234375 0.734375,0.359375 0.238281,0.117187 0.488281,0.246094 0.75,0.390625 0.269531,0.136719 0.617188,0.28125 1.046875,0.4375 0.34375,0.210937 0.71875,0.484375 1.125,0.828125 0.414063,0.335937 0.78125,0.765625 1.09375,1.296875 0.3125,0.523437 0.523438,1.152344 0.640625,1.890625 0.113281,0.730469 0.06641,1.609375 -0.140625,2.640625 -0.136719,1.117187 -0.523437,2.121094 -1.15625,3.015625 -0.625,0.886719 -1.3125,1.734375 -2.0625,2.546875 -0.492187,0.324219 -0.984375,0.6875 -1.484375,1.09375 -0.5,0.398437 -1.03125,0.777344 -1.59375,1.140625 -0.5625,0.355469 -1.171875,0.65625 -1.828125,0.90625 -0.648437,0.242187 -1.367187,0.386719 -2.15625,0.4375 C 8.675781,-2.785156 7.890625,-2.835938 7.234375,-2.984375 6.585938,-3.140625 5.878906,-3.3125 5.109375,-3.5 4.921875,-3.539063 4.691406,-3.582031 4.421875,-3.625 4.160156,-3.675781 3.957031,-3.738281 3.8125,-3.8125 c 0.695313,0.53125 1.382813,1.023437 2.0625,1.46875 0.675781,0.4375 1.398438,0.824219 2.171875,1.15625 l 0.59375,-0.03125 c 0.113281,0 0.269531,0.058594 0.46875,0.171875 C 9.316406,-0.929688 9.488281,-0.875 9.625,-0.875 c 0.257813,0 0.40625,0.007812 0.4375,0.015625 0.03125,0.011719 0.164063,0.015625 0.40625,0.015625 1.050781,-0.320313 2.070313,-0.707031 3.0625,-1.15625 0.988281,-0.457031 1.867188,-1.117188 2.640625,-1.984375 0.257813,-0.21875 0.472656,-0.441406 0.640625,-0.671875 0.175781,-0.226563 0.351563,-0.457031 0.53125,-0.6875 0.175781,-0.238281 0.347656,-0.453125 0.515625,-0.640625 0.175781,-0.1875 0.394531,-0.335938 0.65625,-0.453125 0.113281,-0.113281 0.304688,-0.238281 0.578125,-0.375 0.269531,-0.144531 0.550781,-0.28125 0.84375,-0.40625 0.289063,-0.132813 0.554688,-0.242188 0.796875,-0.328125 0.25,-0.082031 0.421875,-0.125 0.515625,-0.125 0.550781,0 0.90625,0.015625 1.0625,0.046875 0.15625,0.023437 0.300781,0.042969 0.4375,0.0625 -0.09375,-0.1875 -0.07813,-0.296875 0.04687,-0.328125 0.132813,-0.03125 0.222656,-0.15625 0.265625,-0.375 0.05078,-0.113281 0.125,-0.226563 0.21875,-0.34375 0.09375,-0.113281 0.191406,-0.289063 0.296875,-0.53125 0.101563,-0.25 0.203125,-0.601563 0.296875,-1.0625 0.09375,-0.457031 0.160156,-1.082031 0.203125,-1.875 0.01953,-0.320313 0.01563,-0.6875 -0.01563,-1.09375 -0.03125,-0.414063 -0.08984,-0.832031 -0.171875,-1.25 -0.08594,-0.414063 -0.179687,-0.820313 -0.28125,-1.21875 -0.105469,-0.394531 -0.214844,-0.742188 -0.328125,-1.046875 -0.242187,-0.5625 -0.511719,-1.0625 -0.8125,-1.5 -0.304687,-0.445313 -0.640625,-0.90625 -1.015625,-1.375 -0.679687,-0.84375 -1.34375,-1.503906 -2,-1.984375 -0.648437,-0.476563 -1.367187,-0.878906 -2.15625,-1.203125 -0.125,0.117187 -0.28125,0.28125 -0.46875,0.5 -0.179687,0.210937 -0.359375,0.324219 -0.546875,0.34375 -0.05469,0.02344 -0.148437,0.07422 -0.28125,0.15625 -0.125,0.08594 -0.265625,0.171875 -0.421875,0.265625 -0.148437,0.09375 -0.292969,0.179687 -0.4375,0.25 -0.136719,0.0625 -0.226562,0.09375 -0.265625,0.09375 -0.136719,0 -0.246094,-0.0039 -0.328125,-0.01563 -0.08594,-0.0078 -0.164062,-0.01563 -0.234375,-0.01563 -0.07422,0 -0.164062,-0.0039 -0.265625,-0.01563 -0.105469,-0.0078 -0.25,-0.01563 -0.4375,-0.01563 -0.230469,0.117187 -0.476562,0.226562 -0.734375,0.328125 -0.25,0.105469 -0.460937,0.25 -0.625,0.4375 z M 0.171875,-12.25 c 0,-1.675781 0.316406,-3.253906 0.953125,-4.734375 0.644531,-1.488281 1.515625,-2.78125 2.609375,-3.875 1.101563,-1.09375 2.394531,-1.960938 3.875,-2.609375 1.476563,-0.644531 3.0625,-0.96875 4.75,-0.96875 1.675781,0 3.25,0.324219 4.71875,0.96875 1.46875,0.648437 2.753906,1.515625 3.859375,2.609375 1.113281,1.09375 1.984375,2.386719 2.609375,3.875 C 24.179688,-15.503906 24.5,-13.925781 24.5,-12.25 c 0,1.679687 -0.320312,3.257812 -0.953125,4.734375 -0.625,1.46875 -1.496094,2.757812 -2.609375,3.859375 -1.105469,1.105469 -2.390625,1.976562 -3.859375,2.609375 -1.46875,0.625 -3.042969,0.9375 -4.71875,0.9375 -1.6875,0 -3.273437,-0.3125 -4.75,-0.9375 C 6.128906,-1.679688 4.835938,-2.550781 3.734375,-3.65625 2.640625,-4.757813 1.769531,-6.046875 1.125,-7.515625 0.488281,-8.992188 0.171875,-10.570313 0.171875,-12.25 Z m 0,0" id="path5335" inkscape:connector-curvature="0"/>
          </g>
        </g>
      </g>
      <g style="display:inline;stroke-width:0.14501549" id="g5355" transform="matrix(6.8892655,0,0,6.9023712,197.56528,16.186705)">
        <g style="fill:#54b854;fill-opacity:1;stroke-width:0.14501549" id="g5347" transform="matrix(0.35277777,0,0,0.35277777,-130.30997,-100.50042)">
          <g transform="matrix(0.26458333,0,0,0.26458333,394.55661,343.05029)" id="g5345" style="stroke-width:0.14501549">
            <path style="stroke:none;stroke-width:0.14501549" d="m 0.140625,-12.421875 c 0,-1.695313 0.320313,-3.296875 0.96875,-4.796875 0.65625,-1.5 1.535156,-2.804688 2.640625,-3.921875 1.113281,-1.113281 2.421875,-1.992188 3.921875,-2.640625 1.507813,-0.644531 3.113281,-0.96875 4.8125,-0.96875 1.695313,0 3.296875,0.324219 4.796875,0.96875 1.507813,0.648437 2.816406,1.527344 3.921875,2.640625 1.113281,1.117187 1.992188,2.421875 2.640625,3.921875 0.65625,1.5 0.984375,3.101562 0.984375,4.796875 0,1.710937 -0.328125,3.308594 -0.984375,4.796875 -0.648437,1.492187 -1.527344,2.796875 -2.640625,3.921875 -1.105469,1.125 -2.414062,2.007812 -3.921875,2.640625 -1.5,0.636719 -3.101562,0.953125 -4.796875,0.953125 -1.699219,0 -3.304687,-0.316406 -4.8125,-0.953125 C 6.171875,-1.695313 4.863281,-2.578125 3.75,-3.703125 2.644531,-4.828125 1.765625,-6.132813 1.109375,-7.625 0.460938,-9.113281 0.140625,-10.710938 0.140625,-12.421875 Z m 14.265625,0.15625 c -0.3125,0.117187 -0.632812,0.210937 -0.953125,0.28125 -0.3125,0.07422 -0.625,0.132812 -0.9375,0.171875 0,0.07422 0.0078,0.132812 0.03125,0.171875 0.03125,0.03125 0.04687,0.07031 0.04687,0.109375 l 0.984375,-0.0625 c 0.125,0 0.296875,-0.03906 0.515625,-0.125 0.226563,-0.08203 0.34375,-0.21875 0.34375,-0.40625 0,-0.05078 -0.01172,-0.07813 -0.03125,-0.07813 0,0 0,-0.01953 0,-0.0625 z M 6.8125,-12.5625 c 0.113281,0.386719 0.300781,0.65625 0.5625,0.8125 0.257813,0.148437 0.519531,0.21875 0.78125,0.21875 0.050781,0 0.144531,0 0.28125,0 0.164063,0 0.320313,-0.01953 0.46875,-0.0625 v -0.140625 C 8.519531,-11.691406 8.164063,-11.78125 7.84375,-12 7.53125,-12.226563 7.1875,-12.414063 6.8125,-12.5625 Z m 0,0" id="path5343" inkscape:connector-curvature="0"/>
          </g>
        </g>
        <g style="fill:#211e1e;fill-opacity:1;stroke-width:0.14501549" id="g5353" transform="matrix(0.35277777,0,0,0.35277777,-130.30997,-100.50042)">
          <g transform="matrix(0.26458333,0,0,0.26458333,394.55661,343.05029)" id="g5351" style="stroke-width:0.14501549">
            <path style="stroke:none;stroke-width:0.14501549" d="m 0.140625,-12.421875 c 0,-1.695313 0.320313,-3.296875 0.96875,-4.796875 0.65625,-1.5 1.535156,-2.804688 2.640625,-3.921875 1.113281,-1.113281 2.421875,-1.992188 3.921875,-2.640625 1.507813,-0.644531 3.113281,-0.96875 4.8125,-0.96875 1.695313,0 3.296875,0.324219 4.796875,0.96875 1.507813,0.648437 2.816406,1.527344 3.921875,2.640625 1.113281,1.117187 1.992188,2.421875 2.640625,3.921875 0.65625,1.5 0.984375,3.101562 0.984375,4.796875 0,1.710937 -0.328125,3.308594 -0.984375,4.796875 -0.648437,1.492187 -1.527344,2.796875 -2.640625,3.921875 -1.105469,1.125 -2.414062,2.007812 -3.921875,2.640625 -1.5,0.636719 -3.101562,0.953125 -4.796875,0.953125 -1.699219,0 -3.304687,-0.316406 -4.8125,-0.953125 C 6.171875,-1.695313 4.863281,-2.578125 3.75,-3.703125 2.644531,-4.828125 1.765625,-6.132813 1.109375,-7.625 0.460938,-9.113281 0.140625,-10.710938 0.140625,-12.421875 Z M 13.1875,-23.515625 c 0.351563,0 0.617188,0.125 0.796875,0.375 0.1875,0.25 0.28125,0.507812 0.28125,0.765625 0,0.167969 -0.04297,0.304687 -0.125,0.40625 -0.08594,0.105469 -0.167969,0.1875 -0.25,0.25 -0.08594,0.05469 -0.167969,0.101562 -0.25,0.140625 -0.08594,0.03125 -0.125,0.07422 -0.125,0.125 0,0.0625 0.01953,0.136719 0.0625,0.21875 0.05078,0.08594 0.07813,0.152344 0.07813,0.203125 0,0.117187 -0.0625,0.25 -0.1875,0.40625 -0.117187,0.15625 -0.230469,0.234375 -0.34375,0.234375 -0.07422,0 -0.132812,-0.03125 -0.171875,-0.09375 -0.03125,-0.0625 -0.04687,-0.113281 -0.04687,-0.15625 0,-0.05078 0.04687,-0.128906 0.140625,-0.234375 0.09375,-0.101563 0.140625,-0.203125 0.140625,-0.296875 0,-0.144531 -0.08594,-0.304688 -0.25,-0.484375 -0.15625,-0.175781 -0.320312,-0.265625 -0.484375,-0.265625 -0.05469,0 -0.152344,0.03906 -0.296875,0.109375 -0.136719,0.07422 -0.242187,0.109375 -0.3125,0.109375 -0.07422,0 -0.125,-0.03906 -0.15625,-0.125 -0.03125,-0.08203 -0.04687,-0.160156 -0.04687,-0.234375 0,-0.164063 0.04687,-0.253906 0.140625,-0.265625 0.09375,-0.0078 0.195313,-0.144531 0.3125,-0.40625 -0.117187,-0.05078 -0.257812,-0.101563 -0.421875,-0.15625 -0.167969,-0.0625 -0.261719,-0.09375 -0.28125,-0.09375 -0.148437,0 -0.265625,0.03125 -0.359375,0.09375 -0.09375,0.05469 -0.199219,0.07813 -0.3125,0.07813 H 10.5 v -0.25 c 0.144531,-0.0625 0.316406,-0.125 0.515625,-0.1875 0.195313,-0.0625 0.351563,-0.09375 0.46875,-0.09375 0.144531,0 0.273438,0.03906 0.390625,0.109375 0.125,0.07422 0.222656,0.109375 0.296875,0.109375 l 0.484375,-0.21875 c 0.289063,-0.113281 0.46875,-0.171875 0.53125,-0.171875 z m 4.15625,0.84375 c 0.01953,0.261719 0.05078,0.523437 0.09375,0.78125 0.05078,0.261719 0.07813,0.546875 0.07813,0.859375 -0.04297,0.261719 -0.07031,0.476562 -0.07813,0.640625 -0.01172,0.167969 -0.07031,0.367187 -0.171875,0.59375 0.125,0.40625 0.363281,0.574219 0.71875,0.5 0.1875,0 0.328125,-0.05469 0.421875,-0.171875 0.09375,-0.125 0.140625,-0.265625 0.140625,-0.421875 0,-0.07031 -0.05859,-0.179688 -0.171875,-0.328125 -0.117187,-0.144531 -0.171875,-0.238281 -0.171875,-0.28125 0,-0.05078 0.05469,-0.07813 0.171875,-0.07813 h 0.171875 c 0.05078,-0.0625 0.09766,-0.140625 0.140625,-0.234375 0.09375,-0.164063 0.128906,-0.265625 0.109375,-0.296875 0.05078,-0.03906 0.08594,-0.0625 0.109375,-0.0625 0.01953,0 0.03125,-0.02344 0.03125,-0.07813 0.125,0.07422 0.191406,0.136719 0.203125,0.1875 0.0078,0.04297 0.01563,0.08984 0.01563,0.140625 0,0.136719 -0.0625,0.242187 -0.1875,0.3125 -0.117187,0.07422 -0.171875,0.132812 -0.171875,0.171875 0,0.05469 0.01953,0.171875 0.0625,0.359375 0.05078,0.1875 0.07813,0.308594 0.07813,0.359375 0,0.04297 -0.01172,0.105469 -0.03125,0.1875 -0.02344,0.08594 -0.05859,0.1875 -0.109375,0.3125 0.375,-0.125 0.632813,-0.203125 0.78125,-0.234375 0.144531,-0.03906 0.21875,-0.210938 0.21875,-0.515625 0,-0.07031 -0.02344,-0.148438 -0.0625,-0.234375 -0.03125,-0.08203 -0.04687,-0.144531 -0.04687,-0.1875 0,-0.03125 0.0078,-0.03516 0.03125,-0.01563 0.01953,0.01172 0.03125,0 0.03125,-0.03125 v -0.03125 c 0,-0.01953 0.01563,-0.03125 0.04687,-0.03125 0.113281,0 0.195313,0.08594 0.25,0.25 0.0625,0.167969 0.09375,0.289062 0.09375,0.359375 0,0.324219 -0.105469,0.546875 -0.3125,0.671875 -0.210937,0.117187 -0.433594,0.171875 -0.671875,0.171875 -0.05469,0 -0.148437,-0.01953 -0.28125,-0.0625 -0.125,-0.05078 -0.226562,-0.07813 -0.296875,-0.07813 -0.04297,0.02344 -0.101562,0.05859 -0.171875,0.109375 -0.09375,0.07422 -0.234375,0.109375 -0.421875,0.109375 -0.117187,0 -0.289062,-0.04687 -0.515625,-0.140625 -0.230469,-0.101563 -0.367187,-0.238281 -0.40625,-0.40625 l -0.140625,0.15625 v -0.46875 c 0.03906,-0.164063 0.09766,-0.316406 0.171875,-0.453125 0.113281,-0.289063 0.171875,-0.566406 0.171875,-0.828125 -0.02344,-0.09375 -0.04297,-0.179688 -0.0625,-0.265625 -0.02344,-0.08203 -0.04687,-0.15625 -0.07813,-0.21875 -0.02344,-0.101563 -0.04297,-0.1875 -0.0625,-0.25 0.03906,-0.125 0.0625,-0.253906 0.0625,-0.390625 0,-0.144531 0.07031,-0.289063 0.21875,-0.4375 z M 6.671875,-21.59375 c 0.257813,0 0.472656,0.07031 0.640625,0.203125 0.164063,0.125 0.25,0.351562 0.25,0.671875 H 8.625 c 0.0625,0 0.15625,0.04297 0.28125,0.125 0.132813,0.08594 0.265625,0.171875 0.390625,0.265625 -0.054687,0.125 -0.125,0.195312 -0.21875,0.203125 -0.09375,0.01172 -0.179687,0.01563 -0.25,0.01563 -0.042969,0 -0.152344,-0.03516 -0.328125,-0.109375 -0.179687,-0.07031 -0.292969,-0.109375 -0.34375,-0.109375 -0.1875,0 -0.324219,0.03125 -0.40625,0.09375 -0.085937,0.0625 -0.199219,0.199219 -0.34375,0.40625 l 0.15625,0.28125 c 0.09375,0.1875 0.140625,0.308594 0.140625,0.359375 v 0.671875 c -0.054687,0 -0.105469,0.01563 -0.15625,0.04687 -0.042969,0.02344 -0.089844,0.03125 -0.140625,0.03125 -0.117187,0 -0.171875,-0.04687 -0.171875,-0.140625 0,-0.03125 0.00391,-0.07813 0.015625,-0.140625 0.00781,-0.07031 0.015625,-0.132813 0.015625,-0.1875 0,-0.257813 -0.101562,-0.5 -0.296875,-0.71875 -0.199219,-0.226563 -0.429687,-0.34375 -0.6875,-0.34375 -0.09375,0 -0.203125,0.03125 -0.328125,0.09375 -0.117187,0.05469 -0.230469,0.117187 -0.34375,0.1875 -0.125,0.09375 -0.257812,0.203125 -0.390625,0.328125 -0.054687,0 -0.089844,-0.01563 -0.109375,-0.04687 l -0.03125,-0.03125 v -0.07813 c 0,-0.113281 0.054688,-0.222656 0.171875,-0.328125 0.113281,-0.101563 0.25,-0.195313 0.40625,-0.28125 0.15625,-0.08203 0.304688,-0.144531 0.453125,-0.1875 0.15625,-0.05078 0.257813,-0.07813 0.3125,-0.07813 0.113281,0 0.207031,0.02344 0.28125,0.0625 0.070313,0.03125 0.203125,0.105469 0.390625,0.21875 0.050781,-0.07031 0.078125,-0.144531 0.078125,-0.21875 0,-0.07031 0,-0.128906 0,-0.171875 0,-0.257813 -0.023437,-0.4375 -0.0625,-0.53125 -0.03125,-0.09375 -0.179687,-0.140625 -0.4375,-0.140625 -0.1875,0 -0.367187,0.04687 -0.53125,0.140625 -0.167969,0.09375 -0.34375,0.199219 -0.53125,0.3125 -0.054687,-0.03906 -0.078125,-0.08594 -0.078125,-0.140625 0,-0.113281 0.050781,-0.21875 0.15625,-0.3125 0.113281,-0.09375 0.234375,-0.171875 0.359375,-0.234375 0.132813,-0.0625 0.257813,-0.109375 0.375,-0.140625 0.113281,-0.03125 0.195313,-0.04687 0.25,-0.04687 z m 6.171875,3.21875 c 0.132813,0 0.242188,0.05859 0.328125,0.171875 0.08203,0.105469 0.125,0.203125 0.125,0.296875 0,0.04297 0,0.101562 0,0.171875 0,0.05469 -0.02344,0.109375 -0.0625,0.171875 H 13.4375 c 0.1875,0 0.375,0.07813 0.5625,0.234375 0.195313,0.15625 0.332031,0.234375 0.40625,0.234375 0.03906,0 0.07813,-0.01953 0.109375,-0.0625 0.03906,-0.05078 0.08594,-0.101563 0.140625,-0.15625 0.207031,-0.07031 0.429688,-0.109375 0.671875,-0.109375 0,-0.03906 -0.02734,-0.07031 -0.07813,-0.09375 -0.04297,-0.03125 -0.08984,-0.06641 -0.140625,-0.109375 v -0.21875 c 0.05078,-0.03906 0.144531,-0.0625 0.28125,-0.0625 0.21875,0.1875 0.40625,0.445312 0.5625,0.765625 0.164063,0.3125 0.304688,0.648437 0.421875,1 0.125,0.355469 0.210938,0.703125 0.265625,1.046875 0.0625,0.34375 0.09375,0.636719 0.09375,0.875 0,0.1875 -0.03906,0.417969 -0.109375,0.6875 -0.0625,0.273437 -0.167969,0.464844 -0.3125,0.578125 -0.09375,-0.03906 -0.164062,-0.117188 -0.203125,-0.234375 -0.03125,-0.125 -0.04687,-0.222656 -0.04687,-0.296875 0,-0.0625 0.03125,-0.222656 0.09375,-0.484375 0.0625,-0.257813 0.09375,-0.414063 0.09375,-0.46875 0,-0.07031 -0.02344,-0.1875 -0.0625,-0.34375 -0.03125,-0.164063 -0.07031,-0.347656 -0.109375,-0.546875 -0.03125,-0.207031 -0.07031,-0.394531 -0.109375,-0.5625 -0.03125,-0.164063 -0.04687,-0.257813 -0.04687,-0.28125 -0.167969,0.261719 -0.34375,0.449219 -0.53125,0.5625 0.164063,0.02344 0.304688,0.117187 0.421875,0.28125 0.125,0.167969 0.1875,0.3125 0.1875,0.4375 0,0.1875 -0.05859,0.339844 -0.171875,0.453125 -0.105469,0.117187 -0.203125,0.28125 -0.296875,0.5 -0.117187,0 -0.179687,-0.01563 -0.1875,-0.04687 -0.01172,-0.03906 -0.01563,-0.09766 -0.01563,-0.171875 0,-0.113281 0.05078,-0.253906 0.15625,-0.421875 0.101563,-0.164063 0.15625,-0.269531 0.15625,-0.3125 0,-0.195313 -0.09375,-0.320313 -0.28125,-0.375 C 15.171875,-15.32812 15.050781,-15.40625 15,-15.5 c -0.09375,0.09375 -0.1875,0.140625 -0.28125,0.140625 -0.04297,0 -0.0625,-0.0078 -0.0625,-0.03125 0,-0.01953 -0.02734,-0.05469 -0.07813,-0.109375 -0.05469,0.117187 -0.07422,0.242187 -0.0625,0.375 0.01953,0.125 -0.0078,0.25 -0.07813,0.375 -0.148437,0 -0.261719,-0.05078 -0.34375,-0.15625 -0.08594,-0.113281 -0.15625,-0.226563 -0.21875,-0.34375 -0.05469,-0.113281 -0.121094,-0.222656 -0.203125,-0.328125 -0.08594,-0.113281 -0.210937,-0.171875 -0.375,-0.171875 -0.04297,0 -0.121094,0.01563 -0.234375,0.04687 -0.105469,0.02344 -0.179687,0.03125 -0.21875,0.03125 -0.21875,0 -0.328125,-0.117188 -0.328125,-0.359375 v -0.53125 c -0.04297,0 -0.121094,-0.05078 -0.234375,-0.15625 -0.105469,-0.113281 -0.1875,-0.171875 -0.25,-0.171875 -0.105469,0 -0.292969,0.101562 -0.5625,0.296875 -0.273437,0.1875 -0.445312,0.328125 -0.515625,0.421875 0.07031,0.117187 0.125,0.21875 0.15625,0.3125 0.03906,0.09375 0.132813,0.1875 0.28125,0.28125 0.113281,-0.01953 0.234375,-0.05078 0.359375,-0.09375 0.132813,-0.05078 0.25,-0.07813 0.34375,-0.07813 0.21875,0 0.394531,0.07031 0.53125,0.203125 0.144531,0.125 0.21875,0.261719 0.21875,0.40625 0,0.04297 -0.02734,0.152344 -0.07813,0.328125 -0.04297,0.179687 -0.08984,0.292969 -0.140625,0.34375 -0.136719,-0.144531 -0.21875,-0.265625 -0.25,-0.359375 -0.02344,-0.09375 -0.03906,-0.164063 -0.04687,-0.21875 -0.01172,-0.0625 -0.03906,-0.101563 -0.07813,-0.125 -0.03125,-0.03125 -0.140625,-0.04687 -0.328125,-0.04687 h -0.4375 c 0.07031,0.07422 0.08594,0.171875 0.04687,0.296875 -0.03125,0.117187 -0.04687,0.242187 -0.04687,0.375 H 11.39061 C 11.265625,-14.773438 11.15625,-15 11.0625,-15.21875 10.96875,-15.40625 10.867188,-15.582031 10.765625,-15.75 10.660156,-15.914063 10.570313,-16.035156 10.5,-16.109375 h -0.46875 c -0.210937,0 -0.417969,0.105469 -0.625,0.3125 -0.199219,0.199219 -0.328125,0.390625 -0.390625,0.578125 -0.03125,0 -0.074219,-0.0078 -0.125,-0.03125 -0.042969,-0.01953 -0.0625,-0.05469 -0.0625,-0.109375 0,-0.1875 0.066406,-0.34375 0.203125,-0.46875 0.144531,-0.132813 0.335938,-0.285156 0.578125,-0.453125 -0.09375,-0.07031 -0.179687,-0.164063 -0.25,-0.28125 -0.074219,-0.113281 -0.167969,-0.222656 -0.28125,-0.328125 H 8.6875 c -0.042969,0 -0.101562,0.03125 -0.171875,0.09375 -0.074219,0.0625 -0.121094,0.09375 -0.140625,0.09375 -0.125,0 -0.195312,-0.01563 -0.203125,-0.04687 -0.011719,-0.03906 -0.015625,-0.08594 -0.015625,-0.140625 0,-0.25 0.128906,-0.410156 0.390625,-0.484375 0.257813,-0.07031 0.4375,-0.109375 0.53125,-0.109375 0.164063,0 0.300781,0.05469 0.40625,0.15625 0.101563,0.105469 0.207031,0.21875 0.3125,0.34375 0.09375,0.136719 0.171875,0.296875 0.234375,0.484375 0.05078,0 0.08594,-0.0078 0.109375,-0.03125 0.01953,-0.01953 0.04687,-0.03125 0.07813,-0.03125 0.03906,0 0.113281,0.01172 0.21875,0.03125 0.113281,0.02344 0.207031,0.05859 0.28125,0.109375 0.03906,-0.07031 0.07813,-0.160156 0.109375,-0.265625 0.03906,-0.101563 0.132813,-0.21875 0.28125,-0.34375 -0.07422,-0.0625 -0.132812,-0.140625 -0.171875,-0.234375 -0.03125,-0.101563 -0.02734,-0.175781 0.01563,-0.21875 H 10.78125 c -0.04297,0 -0.08984,0.01172 -0.140625,0.03125 -0.05469,0.02344 -0.101562,0.03125 -0.140625,0.03125 -0.1875,0 -0.28125,-0.06641 -0.28125,-0.203125 0,-0.144531 0.117188,-0.238281 0.359375,-0.28125 0.25,-0.05078 0.398438,-0.07813 0.453125,-0.07813 0.257813,0 0.394531,0.105469 0.40625,0.3125 0.0078,0.199219 0.05078,0.296875 0.125,0.296875 0.05078,0 0.140625,-0.01563 0.265625,-0.04687 0.132813,-0.03906 0.222656,-0.0625 0.265625,-0.0625 0.07031,0 0.148438,0.02734 0.234375,0.07813 0.08203,0.04297 0.144531,0.101562 0.1875,0.171875 0.05078,-0.09375 0.101563,-0.1875 0.15625,-0.28125 0.0625,-0.09375 0.117188,-0.203125 0.171875,-0.328125 -0.125,-0.09375 -0.226562,-0.117188 -0.296875,-0.07813 -0.0625,0.03125 -0.09375,0.01172 -0.09375,-0.0625 0,-0.257813 0.128906,-0.390625 0.390625,-0.390625 z m 9.359375,1.8125 c 0.05078,0.04297 0.08594,0.0625 0.109375,0.0625 0.01953,0 0.05469,0.02734 0.109375,0.07813 -0.07422,0.335937 -0.199219,0.554687 -0.375,0.65625 -0.179687,0.105469 -0.359375,0.15625 -0.546875,0.15625 -0.125,0 -0.246094,-0.01953 -0.359375,-0.0625 -0.117187,-0.05078 -0.171875,-0.171875 -0.171875,-0.359375 0,-0.113281 0.05469,-0.195313 0.171875,-0.25 0.09375,0.28125 0.269531,0.386719 0.53125,0.3125 0.1875,0 0.289063,-0.07813 0.3125,-0.234375 0.03125,-0.164063 0.101563,-0.285156 0.21875,-0.359375 z m -19.15625,0 c 0.21875,0 0.429688,0.07031 0.640625,0.203125 0.21875,0.125 0.328125,0.308594 0.328125,0.546875 0,0.04297 -0.101562,0.109375 -0.296875,0.203125 C 3.601563,-15.722656 3.5,-15.832031 3.40625,-15.9375 3.3125,-16.050781 3.191406,-16.109375 3.046875,-16.109375 c -0.117187,0 -0.289062,0.08984 -0.515625,0.265625 -0.21875,0.179687 -0.308594,0.367187 -0.265625,0.5625 0.070313,0 0.164063,-0.01953 0.28125,-0.0625 0.125,-0.05078 0.207031,-0.07813 0.25,-0.07813 0.164063,0 0.34375,0.09375 0.53125,0.28125 0.144531,-0.07031 0.285156,-0.164063 0.421875,-0.28125 0.144531,-0.125 0.28125,-0.1875 0.40625,-0.1875 0.1875,0 0.410156,0.07422 0.671875,0.21875 0.257813,0.136719 0.390625,0.324219 0.390625,0.5625 v 0.46875 l -0.046875,0.03125 C 5.148438,-14.30469 5.09375,-14.29688 5,-14.29688 c -0.09375,0 -0.15625,-0.04687 -0.1875,-0.140625 -0.023437,-0.09375 -0.046875,-0.191406 -0.078125,-0.296875 -0.03125,-0.101563 -0.078125,-0.195313 -0.140625,-0.28125 -0.0625,-0.08203 -0.179687,-0.125 -0.34375,-0.125 -0.261719,0 -0.464844,0.140625 -0.609375,0.421875 -0.136719,0.28125 -0.261719,0.515625 -0.375,0.703125 -0.148437,0 -0.230469,-0.04687 -0.25,-0.140625 -0.023437,-0.09375 -0.03125,-0.195313 -0.03125,-0.3125 0,-0.144531 -0.023437,-0.265625 -0.0625,-0.359375 -0.03125,-0.09375 -0.121094,-0.140625 -0.265625,-0.140625 -0.230469,0 -0.417969,0.07422 -0.5625,0.21875 -0.148437,0.136719 -0.257812,0.289062 -0.328125,0.453125 -0.0625,0.167969 -0.121094,0.324219 -0.171875,0.46875 -0.042969,0.136719 -0.089844,0.203125 -0.140625,0.203125 -0.042969,0 -0.117187,-0.04687 -0.21875,-0.140625 v -0.53125 c 0,-0.07031 0.085938,-0.210938 0.265625,-0.421875 0.1875,-0.207031 0.300781,-0.328125 0.34375,-0.359375 0,-0.03906 -0.00781,-0.07031 -0.015625,-0.09375 -0.011719,-0.03125 -0.015625,-0.06641 -0.015625,-0.109375 0,-0.05078 0.015625,-0.09375 0.046875,-0.125 0.039063,-0.03906 0.0625,-0.09766 0.0625,-0.171875 0.039063,-0.320313 0.179688,-0.566406 0.421875,-0.734375 0.238281,-0.164063 0.472656,-0.25 0.703125,-0.25 z m 16.5625,1.484375 c 0.125,0 0.21875,0.0625 0.28125,0.1875 0.07031,0.117187 0.109375,0.210937 0.109375,0.28125 0,0.1875 -0.101562,0.449219 -0.296875,0.78125 -0.199219,0.324219 -0.4375,0.648437 -0.71875,0.96875 -0.273437,0.324219 -0.5625,0.605469 -0.875,0.84375 -0.304687,0.230469 -0.558594,0.34375 -0.765625,0.34375 -0.09375,0 -0.234375,-0.04687 -0.421875,-0.140625 C 17.054688,-12.050781 17.25,-12.195313 17.5,-12.25 c 0.25,-0.0625 0.429688,-0.164063 0.546875,-0.3125 0.550781,-0.320313 0.867188,-0.6875 0.953125,-1.09375 0.08203,-0.40625 0.144531,-0.796875 0.1875,-1.171875 0.09375,-0.164063 0.234375,-0.25 0.421875,-0.25 z m 0.78125,2.734375 c -0.04297,0.148437 -0.101562,0.273437 -0.171875,0.375 -0.07422,0.105469 -0.167969,0.230469 -0.28125,0.375 0.132813,0.117187 0.28125,0.246094 0.4375,0.390625 0.15625,0.136719 0.328125,0.265625 0.515625,0.390625 v 0.28125 h -0.5 c 0.03125,0 -0.05469,-0.04687 -0.25,-0.140625 -0.0625,0.28125 -0.195312,0.574219 -0.390625,0.875 0.164063,0.199219 0.320313,0.386719 0.46875,0.5625 0.144531,0.179687 0.296875,0.351562 0.453125,0.515625 0,0.042969 -0.01563,0.089844 -0.04687,0.140625 -0.03125,0.042969 -0.08594,0.0625 -0.15625,0.0625 -0.09375,0 -0.246094,-0.09375 -0.453125,-0.28125 -0.199219,-0.1875 -0.335937,-0.316406 -0.40625,-0.390625 -0.04297,0.261719 -0.171875,0.480469 -0.390625,0.65625 -0.210937,0.179687 -0.421875,0.265625 -0.640625,0.265625 -0.230469,0 -0.433594,-0.054688 -0.609375,-0.171875 -0.179687,-0.125 -0.375,-0.316406 -0.59375,-0.578125 -0.04297,-0.039063 -0.125,-0.066406 -0.25,-0.078125 -0.117187,-0.00781 -0.210937,-0.039063 -0.28125,-0.09375 -0.09375,-0.113281 -0.195312,-0.234375 -0.296875,-0.359375 -0.105469,-0.132813 -0.15625,-0.238281 -0.15625,-0.3125 V -10.25 c 0.6875,-0.1875 1.347656,-0.429688 1.984375,-0.734375 0.632813,-0.3125 1.269531,-0.789063 1.90625,-1.4375 z M 3.65625,-11.734375 c 0.039063,0 0.113281,0.01172 0.21875,0.03125 0.113281,0.02344 0.226563,0.05469 0.34375,0.09375 0.113281,0.03125 0.21875,0.08594 0.3125,0.15625 0.101563,0.07422 0.15625,0.15625 0.15625,0.25 0,0.117187 -0.0625,0.179687 -0.1875,0.1875 C 4.382813,-11.003906 4.300781,-11 4.25,-11 c -0.023437,0 -0.132812,-0.01953 -0.328125,-0.0625 -0.199219,-0.05078 -0.324219,-0.07813 -0.375,-0.07813 -0.210937,0 -0.351562,0.105469 -0.421875,0.3125 -0.074219,0.199219 -0.109375,0.367187 -0.109375,0.5 v 0.53125 h -0.28125 c -0.148437,0 -0.21875,-0.078125 -0.21875,-0.234375 0,-0.195313 0,-0.316406 0,-0.359375 0,-0.257813 0.097656,-0.546875 0.296875,-0.859375 0.207031,-0.320313 0.488281,-0.484375 0.84375,-0.484375 z M 5.140625,-10.25 c 0.050781,0.05469 0.097656,0.09375 0.140625,0.125 0.050781,0.03125 0.078125,0.07422 0.078125,0.125 0,0.09375 -0.085937,0.1875 -0.25,0.28125 -0.167969,0.09375 -0.375,0.210937 -0.625,0.34375 -0.25,0.125 -0.511719,0.296875 -0.78125,0.515625 C 3.429688,-8.648438 3.175781,-8.378906 2.9375,-8.046875 2.820313,-7.878906 2.773438,-7.695313 2.796875,-7.5 2.828125,-7.300781 2.78125,-7.109375 2.65625,-6.921875 2.613281,-6.960938 2.570313,-7.035156 2.53125,-7.140625 2.5,-7.253906 2.476563,-7.378906 2.46875,-7.515625 2.457031,-7.660156 2.441406,-7.796875 2.421875,-7.921875 2.410156,-8.054688 2.40625,-8.144531 2.40625,-8.1875 V -8.796875 L 2.453125,-8.9375 c 0.113281,0.042969 0.195313,0.101562 0.25,0.171875 0.0625,0.074219 0.117188,0.136719 0.171875,0.1875 C 3.132813,-8.960938 3.476563,-9.3125 3.90625,-9.625 4.332031,-9.945313 4.742188,-10.15625 5.140625,-10.25 Z m 8.046875,0.3125 c 0.03125,0 0.08203,0.039062 0.15625,0.109375 l 0.09375,0.109375 c 0,0.054687 -0.04297,0.136719 -0.125,0.25 -0.08594,0.117187 -0.171875,0.242187 -0.265625,0.375 -0.09375,0.125 -0.183594,0.246094 -0.265625,0.359375 -0.08594,0.105469 -0.136719,0.179687 -0.15625,0.21875 -0.02344,0.054687 -0.03906,0.125 -0.04687,0.21875 -0.01172,0.09375 -0.05469,0.179687 -0.125,0.25 -0.05469,0 -0.08984,0.011719 -0.109375,0.03125 -0.02344,0.023437 -0.05859,0.03125 -0.109375,0.03125 -0.1875,0 -0.304687,-0.0625 -0.34375,-0.1875 -0.03125,-0.132813 -0.04687,-0.222656 -0.04687,-0.265625 0,-0.289063 0.171875,-0.5625 0.515625,-0.8125 0.34375,-0.257813 0.617188,-0.488281 0.828125,-0.6875 z m -4.421875,0 c 0.09375,0 0.234375,0.074219 0.421875,0.21875 0.1875,0.148437 0.367188,0.308594 0.546875,0.484375 0.175781,0.179687 0.332031,0.359375 0.46875,0.546875 0.144531,0.1875 0.21875,0.328125 0.21875,0.421875 0,0.167969 -0.117187,0.273437 -0.34375,0.3125 -0.21875,0.03125 -0.351562,0.046875 -0.390625,0.046875 -0.03125,0 -0.101562,-0.00391 -0.203125,-0.015625 C 9.378906,-7.929688 9.265625,-7.945313 9.140625,-7.96875 9.023438,-8 8.921875,-8.035156 8.828125,-8.078125 8.734375,-8.128906 8.6875,-8.191406 8.6875,-8.265625 c 0,-0.207031 0.15625,-0.382813 0.46875,-0.53125 C 9.082031,-8.960938 8.953125,-9.09375 8.765625,-9.1875 c -0.1875,-0.09375 -0.28125,-0.234375 -0.28125,-0.421875 0,-0.050781 0.023438,-0.117188 0.078125,-0.203125 0.0625,-0.082031 0.128906,-0.125 0.203125,-0.125 z M 17.125,-7.796875 c 0.05078,0 0.128906,0.046875 0.234375,0.140625 0.101563,0.09375 0.238281,0.210937 0.40625,0.34375 0.164063,0.125 0.34375,0.242187 0.53125,0.34375 0.1875,0.105469 0.378906,0.167969 0.578125,0.1875 0.320313,0.054687 0.671875,0.023437 1.046875,-0.09375 0.382813,-0.125 0.613281,-0.1875 0.6875,-0.1875 0.03906,0.054687 0.05078,0.121094 0.03125,0.203125 -0.02344,0.085937 -0.03125,0.148437 -0.03125,0.1875 -0.167969,0.074219 -0.34375,0.105469 -0.53125,0.09375 -0.1875,-0.00781 -0.34375,0.054687 -0.46875,0.1875 -0.04297,0.054687 -0.07031,0.125 -0.07813,0.21875 -0.01172,0.09375 -0.07813,0.199219 -0.203125,0.3125 -0.09375,0.074219 -0.1875,0.132812 -0.28125,0.171875 -0.09375,0.03125 -0.199219,0.074219 -0.3125,0.125 -0.05469,0.261719 -0.214844,0.445312 -0.484375,0.546875 -0.273437,0.105469 -0.515625,0.15625 -0.734375,0.15625 -0.261719,0 -0.492187,-0.050781 -0.6875,-0.15625 -0.199219,-0.101563 -0.296875,-0.3125 -0.296875,-0.625 0,-0.09375 0.01953,-0.1875 0.0625,-0.28125 -0.04297,0 -0.152344,-0.09375 -0.328125,-0.28125 C 16.085938,-6.390625 16,-6.546875 16,-6.671875 c 0,-0.019531 0.04687,-0.132813 0.140625,-0.34375 0.09375,-0.21875 0.175781,-0.363281 0.25,-0.4375 0.03906,0 0.08594,0.027344 0.140625,0.078125 -0.05469,0.09375 -0.121094,0.195312 -0.203125,0.296875 -0.08594,0.105469 -0.109375,0.230469 -0.07813,0.375 0.03906,0.167969 0.148438,0.296875 0.328125,0.390625 0.175781,0.09375 0.289063,0.140625 0.34375,0.140625 0.207031,0 0.347656,-0.0625 0.421875,-0.1875 0.07031,-0.132813 0.203125,-0.296875 0.390625,-0.484375 -0.1875,-0.144531 -0.359375,-0.265625 -0.515625,-0.359375 -0.15625,-0.09375 -0.234375,-0.242188 -0.234375,-0.453125 0,-0.09375 0.04687,-0.140625 0.140625,-0.140625 z M 5.671875,-7.3125 c 0.070313,0 0.191406,0.054687 0.359375,0.15625 0.164063,0.09375 0.25,0.171875 0.25,0.234375 0,0.074219 -0.015625,0.117187 -0.046875,0.125 -0.023437,0.011719 -0.054687,0.042969 -0.09375,0.09375 -0.242187,-0.09375 -0.417969,-0.140625 -0.53125,-0.140625 -0.1875,0 -0.3125,0.042969 -0.375,0.125 -0.0625,0.085937 -0.09375,0.195312 -0.09375,0.328125 0,0.054687 0.019531,0.105469 0.0625,0.15625 0.050781,0.042969 0.078125,0.089844 0.078125,0.140625 0,0.0625 -0.023437,0.121094 -0.0625,0.171875 H 5 c -0.042969,0 -0.101562,-0.039063 -0.171875,-0.125 -0.074219,-0.082031 -0.148437,-0.125 -0.21875,-0.125 h -0.0625 c -0.054687,0 -0.078125,0.039062 -0.078125,0.109375 l 0.390625,1.203125 v 0.21875 H 4.75 c -0.117187,0 -0.214844,-0.050781 -0.296875,-0.15625 C 4.367188,-4.910156 4.300781,-5.035156 4.25,-5.171875 4.207031,-5.316406 4.179688,-5.453125 4.171875,-5.578125 4.160156,-5.710938 4.15625,-5.804688 4.15625,-5.859375 c 0,-0.039063 0,-0.117188 0,-0.234375 0,-0.125 0.019531,-0.222656 0.0625,-0.296875 0.050781,-0.113281 0.140625,-0.175781 0.265625,-0.1875 0.132813,-0.00781 0.222656,-0.039063 0.265625,-0.09375 0.1875,-0.113281 0.34375,-0.25 0.46875,-0.40625 C 5.351563,-7.234375 5.503906,-7.3125 5.671875,-7.3125 Z m 1.671875,0.859375 c 0.039063,0.042969 0.085938,0.101562 0.140625,0.171875 0.050781,0.074219 0.078125,0.136719 0.078125,0.1875 0,0.023437 -0.027344,0.0625 -0.078125,0.125 -0.054687,0.054687 -0.101562,0.117187 -0.140625,0.1875 -0.054687,0.167969 -0.078125,0.34375 -0.078125,0.53125 0,0.167969 -0.011719,0.34375 -0.03125,0.53125 -0.09375,0.1875 -0.140625,0.367187 -0.140625,0.53125 0,0.261719 0.066406,0.542969 0.203125,0.84375 0.144531,0.292969 0.28125,0.578125 0.40625,0.859375 C 7.648438,-2.460938 7.597656,-2.4375 7.546875,-2.40625 7.503906,-2.382813 7.457031,-2.375 7.40625,-2.375 c -0.136719,0 -0.261719,-0.082031 -0.375,-0.25 -0.105469,-0.164063 -0.1875,-0.34375 -0.25,-0.53125 C 6.726563,-3.34375 6.6875,-3.519531 6.65625,-3.6875 6.632813,-3.851563 6.625,-3.945313 6.625,-3.96875 6.625,-4.132813 6.62891,-4.335938 6.640625,-4.578125 6.660156,-4.816406 6.695313,-5.050781 6.75,-5.28125 c 0.0625,-0.238281 0.140625,-0.460938 0.234375,-0.671875 0.09375,-0.21875 0.210938,-0.382813 0.359375,-0.5 z m 7.234375,0 c 0.113281,0 0.175781,0.042969 0.1875,0.125 0.01953,0.085937 0.05078,0.164062 0.09375,0.234375 0.40625,0.679687 0.96875,1.246094 1.6875,1.703125 0.71875,0.449219 1.382813,0.765625 2,0.953125 -0.07422,0 -0.140625,0.011719 -0.203125,0.03125 -0.05469,0.023437 -0.101562,0.03125 -0.140625,0.03125 -0.386719,0 -0.710937,-0.019531 -0.96875,-0.0625 -0.261719,-0.050781 -0.515625,-0.148438 -0.765625,-0.296875 -0.242187,-0.15625 -0.511719,-0.378906 -0.8125,-0.671875 -0.292969,-0.300781 -0.652344,-0.6875 -1.078125,-1.15625 -0.05469,0.042969 -0.121094,0.121094 -0.203125,0.234375 -0.07422,0.105469 -0.109375,0.179687 -0.109375,0.21875 0,0.261719 0.101563,0.464844 0.3125,0.609375 0.207031,0.136719 0.429688,0.203125 0.671875,0.203125 h 0.03125 c 0.03125,0 0.04687,0.015625 0.04687,0.046875 0,0.042969 -0.07422,0.136719 -0.21875,0.28125 -0.07422,0.074219 -0.15625,0.140625 -0.25,0.203125 0,0.242187 0.0625,0.40625 0.1875,0.5 0.132813,0.09375 0.296875,0.1875 0.484375,0.28125 -0.04297,0.125 -0.105469,0.203125 -0.1875,0.234375 -0.08594,0.03125 -0.164062,0.046875 -0.234375,0.046875 -0.167969,0 -0.296875,-0.101563 -0.390625,-0.3125 -0.09375,-0.207031 -0.140625,-0.347656 -0.140625,-0.421875 0,0 0.02344,-0.070313 0.07813,-0.21875 0.01953,-0.070313 0.03906,-0.128906 0.0625,-0.171875 -0.117187,-0.070313 -0.28125,-0.191406 -0.5,-0.359375 -0.210937,-0.164063 -0.3125,-0.34375 -0.3125,-0.53125 -0.125,0.117187 -0.273437,0.257812 -0.4375,0.421875 -0.15625,0.167969 -0.1875,0.34375 -0.09375,0.53125 0.113281,0.261719 0.359375,0.390625 0.734375,0.390625 0,0.054687 0.0078,0.085937 0.03125,0.09375 0.03125,0.011719 0.04687,0.054687 0.04687,0.125 0,0.054687 -0.04687,0.117187 -0.140625,0.1875 -0.09375,0.0625 -0.167969,0.132812 -0.21875,0.203125 0.07031,0.148437 0.15625,0.289062 0.25,0.421875 0.09375,0.125 0.203125,0.257812 0.328125,0.390625 0,0.054687 -0.04297,0.109375 -0.125,0.171875 -0.08594,0.054687 -0.164062,0.078125 -0.234375,0.078125 -0.07422,0 -0.148437,-0.039063 -0.21875,-0.125 C 13.753906,-1.910156 13.6875,-2 13.625,-2.09375 13.57031,-2.1875 13.523438,-2.273438 13.484375,-2.359375 c -0.03125,-0.082031 -0.04687,-0.125 -0.04687,-0.125 0,-0.070313 0.01953,-0.148438 0.0625,-0.234375 0.05078,-0.082031 0.07813,-0.144531 0.07813,-0.1875 0,-0.050781 -0.07422,-0.128906 -0.21875,-0.234375 -0.136719,-0.101563 -0.242187,-0.226563 -0.3125,-0.375 -0.02344,-0.09375 -0.03125,-0.222656 -0.03125,-0.390625 0,-0.070313 0.0078,-0.140625 0.03125,-0.203125 0,-0.050781 0.03125,-0.101563 0.09375,-0.15625 0.0625,-0.0625 0.113281,-0.117188 0.15625,-0.171875 -0.04297,-0.039063 -0.152344,-0.097656 -0.328125,-0.171875 -0.179687,-0.070313 -0.265625,-0.164063 -0.265625,-0.28125 0,-0.070313 0.0078,-0.125 0.03125,-0.15625 0.01953,-0.039063 0.03125,-0.082031 0.03125,-0.125 0.1875,0.042969 0.328125,0.121094 0.421875,0.234375 0.101563,0.105469 0.210938,0.15625 0.328125,0.15625 0.07031,0 0.132813,-0.00781 0.1875,-0.03125 0.0625,-0.03125 0.101563,-0.046875 0.125,-0.046875 0,-0.1875 0.04687,-0.398438 0.140625,-0.640625 0.07031,-0.070313 0.144531,-0.128906 0.21875,-0.171875 0.07031,-0.050781 0.144531,-0.113281 0.21875,-0.1875 0,-0.0625 0.0078,-0.175781 0.03125,-0.34375 0.01953,-0.164063 0.06641,-0.25 0.140625,-0.25 z M 11.25,-5.46875 c 0.113281,0.054687 0.171875,0.117187 0.171875,0.1875 0,0.074219 0.01953,0.109375 0.0625,0.109375 0.07031,0 0.125,-0.00781 0.15625,-0.03125 0.03906,-0.03125 0.08594,-0.046875 0.140625,-0.046875 0.0625,0 0.09766,0.015625 0.109375,0.046875 0.01953,0.023437 0.05078,0.03125 0.09375,0.03125 -0.02344,0.117187 -0.09375,0.226562 -0.21875,0.328125 -0.117187,0.105469 -0.230469,0.199219 -0.34375,0.28125 -0.117187,0.085937 -0.226562,0.164062 -0.328125,0.234375 C 11,-4.253906 10.953125,-4.207031 10.953125,-4.1875 c 0,0.09375 0.05078,0.179687 0.15625,0.25 0.113281,0.074219 0.238281,0.136719 0.375,0.1875 0.144531,0.042969 0.273438,0.085937 0.390625,0.125 0.125,0.03125 0.195313,0.046875 0.21875,0.046875 -0.07422,0.074219 -0.109375,0.167969 -0.109375,0.28125 0.164063,0.1875 0.347656,0.4375 0.546875,0.75 0.207031,0.304687 0.441406,0.539062 0.703125,0.703125 0.07031,0.074219 0.160156,0.132812 0.265625,0.171875 0.101563,0.03125 0.175781,0.117187 0.21875,0.25 h -0.140625 c -0.15625,0 -0.339844,-0.054688 -0.546875,-0.171875 -0.199219,-0.125 -0.390625,-0.273438 -0.578125,-0.453125 -0.1875,-0.175781 -0.359375,-0.363281 -0.515625,-0.5625 -0.15625,-0.195313 -0.257812,-0.378906 -0.296875,-0.546875 -0.167969,0 -0.359375,-0.050781 -0.578125,-0.15625 C 10.851563,-3.414063 10.664063,-3.585938 10.5,-3.828125 v 0.0625 c 0,0.125 0.08594,0.273437 0.265625,0.4375 0.175781,0.167969 0.265625,0.261719 0.265625,0.28125 0,0.136719 -0.08594,0.203125 -0.25,0.203125 -0.07422,0 -0.15625,-0.035156 -0.25,-0.109375 -0.09375,-0.082031 -0.179687,-0.125 -0.25,-0.125 -0.117187,0 -0.210937,0.058594 -0.28125,0.171875 -0.074219,0.117187 -0.109375,0.210937 -0.109375,0.28125 0,0.074219 0.00781,0.195312 0.03125,0.359375 0.03125,0.167969 0.046875,0.273437 0.046875,0.3125 v 0.171875 c -0.054687,0 -0.09375,0.015625 -0.125,0.046875 C 9.8125,-1.710938 9.757813,-1.703125 9.6875,-1.703125 9.632813,-1.816406 9.578125,-1.957031 9.515625,-2.125 9.460938,-2.289063 9.4375,-2.429688 9.4375,-2.546875 c 0,-0.050781 0.00781,-0.125 0.03125,-0.21875 0.019531,-0.09375 0.054688,-0.164063 0.109375,-0.21875 C 9.359375,-3.023438 9.164063,-3.144531 9,-3.34375 8.84375,-3.550781 8.765625,-3.738281 8.765625,-3.90625 c 0,-0.113281 0.066406,-0.28125 0.203125,-0.5 0.144531,-0.226563 0.273438,-0.378906 0.390625,-0.453125 L 9.4375,-4.78125 C 9.476563,-4.832031 9.5,-4.894531 9.5,-4.96875 9.5,-5.039063 9.523438,-5.132813 9.578125,-5.25 h 0.03125 v -0.078125 c 0.070313,0.242187 0.179688,0.421875 0.328125,0.546875 0.15625,0.117187 0.316406,0.210937 0.484375,0.28125 0.195313,-0.1875 0.382813,-0.335938 0.5625,-0.453125 C 11.160156,-5.078125 11.25,-5.25 11.25,-5.46875 Z M 9.5,-4.578125 c -0.042969,0.148437 -0.101562,0.292969 -0.171875,0.4375 -0.074219,0.136719 -0.109375,0.242187 -0.109375,0.3125 0,0.1875 0.082031,0.289062 0.25,0.296875 0.164063,0.011719 0.304688,0.015625 0.421875,0.015625 h 0.28125 C 10.109375,-3.679688 10.003906,-3.851563 9.859375,-4.03125 9.710938,-4.207031 9.59375,-4.390625 9.5,-4.578125 Z m 8.3125,-1.59375 c -0.148437,0.054687 -0.296875,0.121094 -0.453125,0.203125 -0.15625,0.074219 -0.304687,0.109375 -0.4375,0.109375 0.03906,0.148437 0.08203,0.265625 0.125,0.359375 0.05078,0.09375 0.148438,0.179687 0.296875,0.25 0.07031,0.023437 0.175781,0.03125 0.3125,0.03125 0.07031,0 0.144531,-0.00781 0.21875,-0.03125 0.05078,0 0.132813,-0.039063 0.25,-0.125 0.113281,-0.082031 0.207031,-0.144531 0.28125,-0.1875 -0.117187,-0.125 -0.261719,-0.207031 -0.4375,-0.25 -0.179687,-0.050781 -0.230469,-0.171875 -0.15625,-0.359375 z m -7.640625,-0.5 c 0,0.074219 0.02344,0.179687 0.07813,0.3125 0.05078,0.125 0.109375,0.214844 0.171875,0.265625 l 0.609375,-0.578125 z m 7.875,-0.109375 c -0.04297,0.074219 -0.0625,0.183594 -0.0625,0.328125 0,0.304687 0.1875,0.453125 0.5625,0.453125 0.125,0 0.257813,-0.03125 0.40625,-0.09375 C 19.109375,-6.164063 19.1875,-6.265625 19.1875,-6.390625 19,-6.453125 18.8125,-6.519531 18.625,-6.59375 18.4375,-6.664063 18.242188,-6.726563 18.046875,-6.78125 Z m -8.546875,0 c -0.0625,0.125 -0.109375,0.1875 -0.140625,0.1875 0.050781,0 0.097656,0 0.140625,0 0.050781,0 0.085938,0.023437 0.109375,0.0625 v -0.171875 c -0.023437,0 -0.03125,-0.00781 -0.03125,-0.03125 0,-0.03125 -0.027344,-0.046875 -0.078125,-0.046875 z m 2.53125,-0.0625 c -0.292969,0 -0.476562,0.058594 -0.546875,0.171875 0.125,-0.019531 0.21875,-0.039063 0.28125,-0.0625 0.07031,-0.03125 0.160156,-0.066406 0.265625,-0.109375 z M 8.484375,-6.25 C 8.546875,-6.363281 8.613281,-6.46875 8.6875,-6.5625 8.757813,-6.65625 8.832031,-6.75 8.90625,-6.84375 8.78125,-6.914063 8.648438,-6.972656 8.515625,-7.015625 8.390625,-7.066406 8.269531,-7.128906 8.15625,-7.203125 Z m 4.5625,-0.984375 c -0.210937,0 -0.359375,0.058594 -0.453125,0.171875 0.01953,0.054687 0.07813,0.125 0.171875,0.21875 0.07031,-0.070313 0.125,-0.144531 0.15625,-0.21875 0.03906,-0.070313 0.08203,-0.128906 0.125,-0.171875 z m -5.5625,-0.609375 c -0.054687,0 -0.078125,0.015625 -0.078125,0.046875 v 0.0625 c 0.070313,0.148437 0.191406,0.21875 0.359375,0.21875 C 7.722656,-7.566406 7.675781,-7.617188 7.625,-7.671875 7.582031,-7.734375 7.535156,-7.789063 7.484375,-7.84375 Z m 6.234375,0 v 0.046875 c 0.05078,0 0.09375,-0.00391 0.125,-0.015625 0.03906,-0.019531 0.08203,-0.03125 0.125,-0.03125 C 13.875,-7.9375 13.816406,-7.984375 13.796875,-7.984375 Z m 0.859375,-1.203125 c -0.07422,0.09375 -0.140625,0.203125 -0.203125,0.328125 -0.05469,0.117187 -0.117187,0.21875 -0.1875,0.3125 0.144531,0.074219 0.25,0.148437 0.3125,0.21875 0.05078,-0.070313 0.08594,-0.164063 0.109375,-0.28125 0.03125,-0.125 0.04687,-0.207031 0.04687,-0.25 0,-0.050781 0,-0.101563 0,-0.15625 0,-0.0625 -0.02734,-0.117188 -0.07813,-0.171875 z m 3.828125,-1.03125 c 0,0.1875 -0.08594,0.414062 -0.25,0.671875 -0.09375,0.125 -0.1875,0.246094 -0.28125,0.359375 0.113281,0.28125 0.335938,0.390625 0.671875,0.328125 0.238281,0 0.414063,-0.097656 0.53125,-0.296875 0.125,-0.207031 0.160156,-0.40625 0.109375,-0.59375 C 19.09375,-9.628906 18.960938,-9.664063 18.796875,-9.71875 18.628906,-9.769531 18.5,-9.890625 18.40625,-10.078125 Z M 17.984375,-10.25 c -0.1875,0.05469 -0.382812,0.09375 -0.578125,0.125 -0.1875,0.03125 -0.375,0.07422 -0.5625,0.125 0.07031,0.136719 0.171875,0.273437 0.296875,0.40625 0.132813,0.125 0.285156,0.167969 0.453125,0.125 0.144531,-0.050781 0.253906,-0.132813 0.328125,-0.25 0.08203,-0.113281 0.125,-0.234375 0.125,-0.359375 0,-0.09375 -0.02344,-0.148438 -0.0625,-0.171875 z m 4.71875,1.3125 c 0,0.023437 -0.01563,0.132812 -0.04687,0.328125 -0.02344,0.1875 -0.05469,0.382812 -0.09375,0.578125 -0.03125,0.199219 -0.0625,0.386719 -0.09375,0.5625 -0.03125,0.179687 -0.04687,0.265625 -0.04687,0.265625 -0.07422,0.28125 -0.203125,0.652344 -0.390625,1.109375 -0.1875,0.449219 -0.273437,0.824219 -0.25,1.125 0.613281,-0.59375 1.039063,-1.242188 1.28125,-1.953125 0.25,-0.707031 0.457031,-1.484375 0.625,-2.328125 0.05078,0.117187 0.03125,0.183594 -0.0625,0.203125 -0.09375,0.023437 -0.167969,0.03125 -0.21875,0.03125 -0.07422,0 -0.140625,-0.00781 -0.203125,-0.03125 -0.167969,-0.039063 -0.25,-0.132813 -0.25,-0.28125 0,-0.09375 0.04687,-0.140625 0.140625,-0.140625 0.03906,0 0.144531,0.027344 0.3125,0.078125 0.164063,0.042969 0.285156,0.089844 0.359375,0.140625 0.113281,-0.476563 0.195313,-1.035156 0.25,-1.671875 -0.1875,0.04297 -0.328125,0.0625 -0.421875,0.0625 -0.07422,0 -0.171875,0 -0.296875,0 -0.136719,0 -0.246094,-0.0039 -0.328125,-0.01563 -0.08594,-0.0078 -0.21875,-0.07031 -0.40625,-0.1875 z m -3.15625,-2.265625 c -0.148437,0.136719 -0.320312,0.265625 -0.515625,0.390625 -0.199219,0.117187 -0.359375,0.210937 -0.484375,0.28125 0,0.02344 0.03516,0.07031 0.109375,0.140625 0.07031,0.07422 0.15625,0.140625 0.25,0.203125 0.09375,0.05469 0.191406,0.101562 0.296875,0.140625 0.101563,0.03125 0.191406,0.02344 0.265625,-0.03125 0.125,-0.0625 0.203125,-0.140625 0.234375,-0.234375 0.03125,-0.101563 0.04687,-0.175781 0.04687,-0.21875 0,-0.07031 -0.02734,-0.171875 -0.07813,-0.296875 -0.04297,-0.132813 -0.08594,-0.257813 -0.125,-0.375 z m -5.140625,-1.0625 c -0.3125,0.117187 -0.632812,0.210937 -0.953125,0.28125 -0.3125,0.07422 -0.625,0.132812 -0.9375,0.171875 0,0.07422 0.0078,0.132812 0.03125,0.171875 0.03125,0.03125 0.04687,0.07031 0.04687,0.109375 l 0.984375,-0.0625 c 0.125,0 0.296875,-0.03906 0.515625,-0.125 0.226563,-0.08203 0.34375,-0.21875 0.34375,-0.40625 0,-0.05078 -0.01172,-0.07813 -0.03125,-0.07813 0,0 0,-0.01953 0,-0.0625 z M 6.8125,-12.5625 c 0.113281,0.386719 0.300781,0.65625 0.5625,0.8125 0.257813,0.148437 0.519531,0.21875 0.78125,0.21875 0.050781,0 0.144531,0 0.28125,0 0.164063,0 0.320313,-0.01953 0.46875,-0.0625 v -0.140625 C 8.519531,-11.691406 8.164063,-11.78125 7.84375,-12 7.53125,-12.226563 7.1875,-12.414063 6.8125,-12.5625 Z M 15,-16.890625 c -0.04297,0 -0.101562,0.01563 -0.171875,0.04687 -0.07422,0.02344 -0.132812,0.04297 -0.171875,0.0625 0.09375,0.1875 0.140625,0.335937 0.140625,0.4375 v 0.453125 c 0.113281,-0.05078 0.253906,-0.148438 0.421875,-0.296875 0.164063,-0.15625 0.269531,-0.304688 0.3125,-0.453125 -0.136719,-0.09375 -0.230469,-0.15625 -0.28125,-0.1875 -0.04297,-0.03906 -0.125,-0.0625 -0.25,-0.0625 z m -1.28125,-0.34375 c -0.1875,-0.05078 -0.355469,-0.01563 -0.5,0.109375 -0.136719,0.117187 -0.242187,0.171875 -0.3125,0.171875 0.05078,0.117187 0.07813,0.21875 0.07813,0.3125 0,0.07422 0,0.148437 0,0.21875 0.164063,0 0.359375,0.02734 0.578125,0.07813 0.226563,0.04297 0.4375,0.121094 0.625,0.234375 v -0.0625 c 0,-0.332031 -0.03125,-0.570313 -0.09375,-0.71875 -0.05469,-0.15625 -0.179687,-0.269531 -0.375,-0.34375 z m 7.953125,-1.953125 c -0.1875,0.449219 -0.46875,0.898437 -0.84375,1.34375 -0.367187,0.449219 -0.746094,0.804687 -1.140625,1.0625 0.894531,0.78125 1.535156,1.636719 1.921875,2.5625 0.394531,0.917969 0.6875,1.792969 0.875,2.625 0.05078,0 0.08594,-0.0078 0.109375,-0.03125 0.01953,-0.03125 0.05469,-0.04687 0.109375,-0.04687 0.03906,0 0.148438,0.02734 0.328125,0.07813 0.175781,0.04297 0.289063,0.0625 0.34375,0.0625 0.03906,0 0.144531,-0.03125 0.3125,-0.09375 0.164063,-0.07031 0.273438,-0.132813 0.328125,-0.1875 v -0.609375 L 23.6875,-14.21875 c -0.167969,0.1875 -0.382812,0.3125 -0.640625,0.375 -0.25,0.05469 -0.507812,0.07813 -0.765625,0.07813 -0.05469,0 -0.09375,-0.01563 -0.125,-0.04687 -0.02344,-0.03906 -0.0625,-0.08203 -0.125,-0.125 0.0625,-0.07031 0.179688,-0.144531 0.359375,-0.21875 0.1875,-0.07031 0.367188,-0.140625 0.546875,-0.203125 0.175781,-0.07031 0.332031,-0.148438 0.46875,-0.234375 0.144531,-0.08203 0.21875,-0.179688 0.21875,-0.296875 0,-0.125 -0.08594,-0.382813 -0.25,-0.78125 -0.167969,-0.40625 -0.367187,-0.84375 -0.59375,-1.3125 -0.21875,-0.476563 -0.4375,-0.925781 -0.65625,-1.34375 -0.210937,-0.425781 -0.359375,-0.710938 -0.453125,-0.859375 z m -8.625,-3.71875 c -0.04297,0 -0.132812,0.01172 -0.265625,0.03125 -0.125,0.02344 -0.214844,0.04297 -0.265625,0.0625 v 0.359375 c 0.09375,0.05469 0.203125,0.148437 0.328125,0.28125 0.132813,0.125 0.265625,0.1875 0.390625,0.1875 0.132813,0 0.257813,-0.04687 0.375,-0.140625 0.125,-0.101563 0.1875,-0.234375 0.1875,-0.390625 0,-0.125 -0.105469,-0.21875 -0.3125,-0.28125 -0.199219,-0.07031 -0.34375,-0.109375 -0.4375,-0.109375 z m 3.625,-0.75 c 0.03906,0.242187 0.09375,0.484375 0.15625,0.734375 0.0625,0.242187 0.09375,0.480469 0.09375,0.71875 0,0.05469 -0.01563,0.105469 -0.04687,0.15625 -0.02344,0.04297 -0.03125,0.08594 -0.03125,0.125 v 1.0625 c -0.117187,0.3125 -0.230469,0.632812 -0.34375,0.953125 -0.105469,0.3125 -0.25,0.625 -0.4375,0.9375 0.3125,0.136719 0.648438,0.3125 1.015625,0.53125 0.363281,0.210937 0.703125,0.417969 1.015625,0.625 0.320313,0.199219 0.601563,0.371094 0.84375,0.515625 0.238281,0.136719 0.367188,0.203125 0.390625,0.203125 0.07031,0 0.171875,-0.05469 0.296875,-0.171875 0.132813,-0.125 0.257813,-0.222656 0.375,-0.296875 0.1875,-0.113281 0.335938,-0.296875 0.453125,-0.546875 0.125,-0.25 0.222656,-0.46875 0.296875,-0.65625 C 20.863286,-19.003906 20.95313,-19.25 21.01563,-19.5 c 0.0625,-0.257813 0.125,-0.507813 0.1875,-0.75 -0.636719,-0.875 -1.359375,-1.59375 -2.171875,-2.15625 -0.8125,-0.570313 -1.601562,-0.988281 -2.359375,-1.25 z m -5.78125,-0.703125 c -0.167969,0.04297 -0.429687,0.101562 -0.78125,0.171875 -0.355469,0.07422 -0.617187,0.132812 -0.78125,0.171875 -0.5625,0.21875 -1.125,0.445312 -1.6875,0.671875 -0.554687,0.21875 -1.109375,0.507812 -1.671875,0.859375 -0.554687,0.355469 -1.09375,0.804687 -1.625,1.34375 -0.53125,0.542969 -1.058594,1.230469 -1.578125,2.0625 -0.117187,0.230469 -0.242187,0.484375 -0.375,0.765625 -0.125,0.273437 -0.261719,0.523437 -0.40625,0.75 0.09375,-0.113281 0.234375,-0.21875 0.421875,-0.3125 0.195313,-0.09375 0.410156,-0.175781 0.640625,-0.25 0.238281,-0.07031 0.460938,-0.128906 0.671875,-0.171875 0.21875,-0.05078 0.394531,-0.07813 0.53125,-0.07813 0.03125,0 0.125,0.01563 0.28125,0.04687 0.164063,0.02344 0.34375,0.0625 0.53125,0.125 0.195313,0.05469 0.367188,0.140625 0.515625,0.265625 0.15625,0.117187 0.234375,0.265625 0.234375,0.453125 0,0.117187 -0.046875,0.171875 -0.140625,0.171875 -0.117187,0 -0.296875,-0.05078 -0.546875,-0.15625 -0.25,-0.101563 -0.554687,-0.15625 -0.90625,-0.15625 -0.28125,0 -0.621094,0.04687 -1.015625,0.140625 -0.386719,0.09375 -0.699219,0.199219 -0.9375,0.3125 -0.136719,0.07422 -0.25,0.140625 -0.34375,0.203125 -0.09375,0.05469 -0.203125,0.07813 -0.328125,0.07813 -0.074219,0.125 -0.152344,0.320312 -0.234375,0.578125 -0.085937,0.261719 -0.15625,0.53125 -0.21875,0.8125 -0.054687,0.28125 -0.105469,0.539062 -0.15625,0.765625 -0.042969,0.21875 -0.0625,0.34375 -0.0625,0.375 v 0.73438 c 0,0.07422 -0.027344,0.226562 -0.078125,0.453125 -0.042969,0.21875 -0.0625,0.367187 -0.0625,0.4375 V -11 c 0,0.07422 0.019531,0.199219 0.0625,0.375 0.050781,0.179687 0.078125,0.304687 0.078125,0.375 0,0.5625 0.144531,1.226562 0.4375,1.984375 C 1.660156,-7.503906 2.039063,-6.75 2.5,-6 c 0.457031,0.742187 0.96875,1.417969 1.53125,2.03125 0.570313,0.617187 1.144531,1.0625 1.71875,1.34375 0.800781,0.40625 1.632813,0.828125 2.5,1.265625 0.863281,0.4375 1.707031,0.714844 2.53125,0.828125 0.6875,0.117187 1.300781,0.167969 1.84375,0.15625 0.539063,-0.007813 1.085938,-0.070313 1.640625,-0.1875 0.707031,0 1.503906,-0.1875 2.390625,-0.5625 0.882813,-0.382813 1.71875,-0.898438 2.5,-1.546875 0.78125,-0.65625 1.429688,-1.414063 1.953125,-2.28125 0.519531,-0.863281 0.78125,-1.765625 0.78125,-2.703125 v -3.265625 c 0,-0.05078 -0.03125,-0.253906 -0.09375,-0.609375 -0.0625,-0.351563 -0.132812,-0.648438 -0.203125,-0.890625 -0.09375,-0.488281 -0.226562,-0.914063 -0.390625,-1.28125 -0.15625,-0.375 -0.34375,-0.710938 -0.5625,-1.015625 -0.210937,-0.3125 -0.464844,-0.597656 -0.765625,-0.859375 -0.292969,-0.257813 -0.625,-0.539063 -1,-0.84375 -0.90625,-0.757813 -1.824219,-1.316406 -2.75,-1.671875 -0.917969,-0.351563 -1.8125,-0.578125 -2.6875,-0.671875 -0.1875,-0.03906 -0.339844,-0.0625 -0.453125,-0.0625 -0.09375,0 -0.167969,0 -0.21875,0 -0.210937,0 -0.621094,0.04687 -1.234375,0.140625 -0.617187,0.09375 -1.246094,0.261719 -1.890625,0.5 -0.636719,0.230469 -1.210937,0.523437 -1.71875,0.875 -0.5,0.355469 -0.75,0.804687 -0.75,1.34375 0,0.05469 0.00781,0.140625 0.03125,0.265625 0.019531,0.117187 0.039063,0.230469 0.0625,0.34375 -0.167969,0.07422 -0.335937,0.121094 -0.5,0.140625 -0.15625,0.02344 -0.304687,0.05469 -0.4375,0.09375 -0.125,0.03125 -0.230469,0.09375 -0.3125,0.1875 -0.085937,0.09375 -0.125,0.25 -0.125,0.46875 0,0.210937 0.070313,0.398437 0.21875,0.5625 0.15625,0.167969 0.332031,0.3125 0.53125,0.4375 0.207031,0.117187 0.421875,0.210937 0.640625,0.28125 0.226563,0.0625 0.414063,0.121094 0.5625,0.171875 0.0625,0.02344 0.140625,0.0625 0.234375,0.125 0.101563,0.0625 0.207031,0.132812 0.3125,0.203125 0.101563,0.0625 0.203125,0.121094 0.296875,0.171875 0.09375,0.04297 0.1875,0.05469 0.28125,0.03125 0.238281,0.1875 0.40625,0.386719 0.5,0.59375 0.09375,0.199219 0.140625,0.382812 0.140625,0.546875 0,0.09375 -0.039062,0.140625 -0.109375,0.140625 -0.042969,0 -0.089844,-0.0078 -0.140625,-0.03125 -0.042969,-0.03125 -0.089844,-0.04687 -0.140625,-0.04687 -0.042969,0 -0.183594,0.03906 -0.421875,0.109375 -0.242187,0.07422 -0.382812,0.109375 -0.421875,0.109375 -0.167969,0 -0.367187,-0.01563 -0.59375,-0.04687 -0.21875,-0.03906 -0.433594,-0.113281 -0.640625,-0.21875 C 6.941406,-11.429688 6.769531,-11.582031 6.625,-11.78125 6.488281,-11.988281 6.421875,-12.25 6.421875,-12.5625 c 0,-0.113281 0.019531,-0.191406 0.0625,-0.234375 L 6.03125,-13.15625 v 0.421875 c 0,0.429687 0.070313,0.75 0.21875,0.96875 0.15625,0.210937 0.234375,0.464844 0.234375,0.765625 -0.042969,0.05469 -0.089844,0.125 -0.140625,0.21875 -0.09375,0.1875 -0.140625,0.320312 -0.140625,0.390625 0,0.148437 0.019531,0.324219 0.0625,0.53125 0.050781,0.210937 0.113281,0.421875 0.1875,0.640625 0.070313,0.210937 0.148438,0.402344 0.234375,0.578125 0.082031,0.179687 0.144531,0.304687 0.1875,0.375 0,-0.070313 0.019531,-0.117188 0.0625,-0.140625 C 6.988281,-8.425781 7.015625,-8.460938 7.015625,-8.515625 7.015625,-8.554688 7,-8.632813 6.96875,-8.75 6.9375,-8.875 6.890625,-9.003906 6.828125,-9.140625 6.765625,-9.285156 6.707031,-9.429688 6.65625,-9.578125 6.613281,-9.722656 6.582031,-9.84375 6.5625,-9.9375 6.601563,-9.976563 6.65625,-10.007813 6.71875,-10.03125 6.78125,-10.0625 6.832031,-10.097656 6.875,-10.140625 6.96875,-10.046875 7.039063,-10 7.09375,-10 c 0.09375,0.542969 0.285156,0.976562 0.578125,1.296875 0.300781,0.3125 0.632813,0.558594 1,0.734375 0.363281,0.179687 0.753906,0.296875 1.171875,0.359375 0.414063,0.0625 0.785156,0.09375 1.109375,0.09375 0.40625,0 0.878906,-0.0625 1.421875,-0.1875 C 12.914063,-7.835938 13.34375,-8 13.65625,-8.1875 c 0.07031,-0.238281 0.21875,-0.492188 0.4375,-0.765625 0.226563,-0.269531 0.34375,-0.441406 0.34375,-0.515625 0,-0.070313 -0.0078,-0.113281 -0.01563,-0.125 -0.01172,-0.00781 -0.01563,-0.023438 -0.01563,-0.046875 0,-0.070313 0.02344,-0.125 0.07813,-0.15625 0.0625,-0.039063 0.117188,-0.0625 0.171875,-0.0625 v -0.359375 h 0.140625 c 0,0.05469 0.03125,0.105469 0.09375,0.15625 0.07031,0.04297 0.109375,0.085937 0.109375,0.125 0,0.074219 -0.01172,0.117187 -0.03125,0.125 -0.02344,0.011719 -0.03125,0.042969 -0.03125,0.09375 l 0.03125,0.03125 c 0.01953,0.03125 0.03906,0.046875 0.0625,0.046875 l 0.21875,-0.4375 c 0.05078,-0.425781 0.07813,-0.734375 0.07813,-0.921875 0,-0.1875 0,-0.300781 0,-0.34375 0,-0.07031 -0.02344,-0.175781 -0.0625,-0.3125 -0.03125,-0.144531 -0.07422,-0.296875 -0.125,-0.453125 -0.04297,-0.15625 -0.08984,-0.296875 -0.140625,-0.421875 -0.04297,-0.132813 -0.08984,-0.222656 -0.140625,-0.265625 0,0.04297 -0.01172,0.07813 -0.03125,0.109375 -0.02344,0.02344 -0.03125,0.04297 -0.03125,0.0625 0,0.04297 0.01953,0.08984 0.0625,0.140625 0.05078,0.04297 0.07813,0.08984 0.07813,0.140625 0,0.5 -0.195312,0.851562 -0.578125,1.046875 -0.375,0.199219 -0.75,0.296875 -1.125,0.296875 -0.05469,0 -0.1875,-0.03125 -0.40625,-0.09375 -0.210937,-0.07031 -0.335937,-0.109375 -0.375,-0.109375 -0.05469,0 -0.07813,0.01172 -0.07813,0.03125 0,0.02344 -0.02344,0.03125 -0.0625,0.03125 -0.125,0 -0.214844,-0.05078 -0.265625,-0.15625 -0.04297,-0.101563 -0.04687,-0.179688 -0.01563,-0.234375 -0.07422,-0.113281 -0.15625,-0.179688 -0.25,-0.203125 -0.09375,-0.03125 -0.183594,-0.05078 -0.265625,-0.0625 -0.08594,-0.0078 -0.152344,-0.03906 -0.203125,-0.09375 -0.04297,-0.0625 -0.0625,-0.164063 -0.0625,-0.3125 0,-0.113281 0.04687,-0.203125 0.140625,-0.265625 0.09375,-0.0625 0.195313,-0.113281 0.3125,-0.15625 0.113281,-0.05078 0.226563,-0.08203 0.34375,-0.09375 0.125,-0.0078 0.210938,-0.01563 0.265625,-0.01563 0.03906,0 0.1875,0.01563 0.4375,0.04687 0.25,0.02344 0.394531,0.03125 0.4375,0.03125 0.07031,0 0.175781,-0.0039 0.3125,-0.01563 0.144531,-0.01953 0.28125,-0.05078 0.40625,-0.09375 0.132813,-0.05078 0.25,-0.125 0.34375,-0.21875 0.101563,-0.09375 0.15625,-0.210938 0.15625,-0.359375 0,-0.132813 -0.08594,-0.328125 -0.25,-0.578125 -0.167969,-0.25 -0.25,-0.394531 -0.25,-0.4375 0,-0.125 0.09375,-0.1875 0.28125,-0.1875 0.1875,0 0.328125,0.125 0.421875,0.375 0.09375,0.25 0.203125,0.433594 0.328125,0.546875 0.03906,0.148437 0.125,0.257812 0.25,0.328125 0.132813,0.07422 0.226563,0.167969 0.28125,0.28125 0.09375,0.1875 0.144531,0.335937 0.15625,0.4375 0.0078,0.105469 0.01563,0.230469 0.01563,0.375 0,0.05469 -0.0078,0.1875 -0.01563,0.40625 -0.01172,0.210937 -0.01563,0.335937 -0.01563,0.375 0,0.07422 0.01563,0.140625 0.04687,0.203125 0.03906,0.05469 0.0625,0.105469 0.0625,0.15625 0,0.07422 -0.01563,0.15625 -0.04687,0.25 -0.02344,0.09375 -0.03125,0.28125 -0.03125,0.5625 0,0.07422 -0.02344,0.179687 -0.0625,0.3125 -0.03125,0.125 -0.07031,0.261719 -0.109375,0.40625 -0.03125,0.136719 -0.0625,0.265625 -0.09375,0.390625 -0.03125,0.117187 -0.04687,0.183594 -0.04687,0.203125 v 0.609375 c 0,0.023437 -0.03125,0.101562 -0.09375,0.234375 -0.0625,0.125 -0.136719,0.261719 -0.21875,0.40625 -0.08593,0.136734 -0.17187,0.26564 -0.26562,0.39064 -0.09375,0.117187 -0.179687,0.171875 -0.25,0.171875 -0.04297,0 -0.09375,-0.015625 -0.15625,-0.046875 -0.05469,-0.039063 -0.105469,-0.0625 -0.15625,-0.0625 -0.1875,0 -0.351562,0.070312 -0.484375,0.203125 -0.125,0.125 -0.234375,0.265625 -0.328125,0.421875 -0.09375,0.148437 -0.1875,0.289062 -0.28125,0.421875 C 13,-6.0625 12.890625,-6 12.765625,-6 12.671875,-6 12.539063,-6.082031 12.375,-6.25 c -0.1875,0.125 -0.402344,0.1875 -0.640625,0.1875 -0.210937,0 -0.398437,0 -0.5625,0 -0.148437,0 -0.304687,0.085937 -0.46875,0.25 -0.15625,0.167969 -0.296875,0.25 -0.421875,0.25 -0.04297,0 -0.07813,-0.015625 -0.109375,-0.046875 -0.02344,-0.039063 -0.08984,-0.125 -0.203125,-0.25 C 9.820313,-5.898438 9.664063,-5.910156 9.5,-5.890625 9.332031,-5.867188 9.191406,-5.9375 9.078125,-6.09375 c -0.074219,0.417969 -0.25,0.625 -0.53125,0.625 -0.148437,0 -0.273437,-0.0625 -0.375,-0.1875 C 8.066406,-5.789063 7.976563,-5.9375 7.90625,-6.09375 7.832031,-6.257813 7.78125,-6.425781 7.75,-6.59375 7.71875,-6.757813 7.703125,-6.867188 7.703125,-6.921875 7.390625,-7.128906 7.117188,-7.300781 6.890625,-7.4375 6.671875,-7.582031 6.5,-7.726563 6.375,-7.875 6.257813,-8.019531 6.171875,-8.179688 6.109375,-8.359375 6.054688,-8.535156 6.03125,-8.753906 6.03125,-9.015625 c 0,-0.351563 -0.039062,-0.5625 -0.109375,-0.625 -0.074219,-0.070313 -0.109375,-0.238281 -0.109375,-0.5 0,-0.05078 0.00781,-0.160156 0.03125,-0.328125 0.03125,-0.164063 0.046875,-0.28125 0.046875,-0.34375 0,0 -0.027344,-0.07813 -0.078125,-0.234375 C 5.769531,-11.203125 5.722656,-11.375 5.671875,-11.5625 5.628906,-11.75 5.582031,-11.921875 5.53125,-12.078125 c -0.042969,-0.15625 -0.0625,-0.242188 -0.0625,-0.265625 v -0.453125 H 4.75 c -0.375,0 -0.761719,0.08594 -1.15625,0.25 -0.386719,0.15625 -0.746094,0.339844 -1.078125,0.546875 -0.335937,0.199219 -0.621094,0.382812 -0.859375,0.546875 -0.230469,0.167969 -0.371094,0.25 -0.421875,0.25 -0.0625,0 -0.09375,-0.04687 -0.09375,-0.140625 0,-0.332031 0.203125,-0.628906 0.609375,-0.890625 0.414063,-0.257813 0.882813,-0.476563 1.40625,-0.65625 0.519531,-0.175781 1.015625,-0.304688 1.484375,-0.390625 0.476563,-0.08203 0.773438,-0.101563 0.890625,-0.0625 0.09375,-0.09375 0.140625,-0.160156 0.140625,-0.203125 -0.023437,-0.21875 -0.058594,-0.40625 -0.109375,-0.5625 -0.042969,-0.144531 -0.078125,-0.285156 -0.109375,-0.421875 -0.023437,-0.144531 -0.03125,-0.242188 -0.03125,-0.296875 0,-0.07031 0.035156,-0.171875 0.109375,-0.296875 0.070313,-0.132813 0.15625,-0.269531 0.25,-0.40625 0.09375,-0.144531 0.195313,-0.269531 0.3125,-0.375 0.125,-0.101563 0.234375,-0.171875 0.328125,-0.203125 v -0.09375 c 0,-0.476563 0.128906,-0.832031 0.390625,-1.0625 0.257813,-0.238281 0.660156,-0.488281 1.203125,-0.75 0.144531,-0.257813 0.328125,-0.46875 0.546875,-0.625 0.226563,-0.15625 0.472656,-0.289063 0.734375,-0.40625 0.257813,-0.113281 0.519531,-0.210938 0.78125,-0.296875 0.257813,-0.08203 0.492188,-0.1875 0.703125,-0.3125 C 10.738281,-19.75 10.691406,-19.863281 10.640625,-20 10.585938,-20.144531 10.539063,-20.253906 10.5,-20.328125 c -0.09375,-0.164063 -0.265625,-0.367188 -0.515625,-0.609375 -0.25,-0.25 -0.507812,-0.492188 -0.765625,-0.734375 -0.261719,-0.238281 -0.492187,-0.445313 -0.6875,-0.625 -0.199219,-0.175781 -0.296875,-0.273438 -0.296875,-0.296875 0.019531,-0.01953 0.039063,-0.05469 0.0625,-0.109375 0.050781,-0.07031 0.113281,-0.109375 0.1875,-0.109375 0.132813,0 0.332031,0.08984 0.59375,0.265625 0.257813,0.179687 0.515625,0.382812 0.765625,0.609375 0.25,0.230469 0.472656,0.464844 0.671875,0.703125 0.195313,0.230469 0.320313,0.402344 0.375,0.515625 0.07031,0.167969 0.140625,0.351562 0.203125,0.546875 0.07031,0.1875 0.144531,0.339844 0.21875,0.453125 l 0.921875,-0.07813 h 0.609375 c 0.894531,0.07422 1.816406,0.296875 2.765625,0.671875 0,-0.0625 0.03906,-0.1875 0.125,-0.375 0.08203,-0.195313 0.164063,-0.410156 0.25,-0.640625 0.08203,-0.238281 0.15625,-0.460938 0.21875,-0.671875 0.07031,-0.21875 0.109375,-0.382813 0.109375,-0.5 v -0.46875 c 0,-0.03906 0.01953,-0.109375 0.0625,-0.203125 0.05078,-0.09375 0.07813,-0.164063 0.07813,-0.21875 0,-0.1875 -0.0078,-0.328125 -0.01563,-0.421875 -0.01172,-0.09375 -0.03906,-0.191406 -0.07813,-0.296875 -0.03125,-0.113281 -0.07031,-0.238281 -0.109375,-0.375 -0.03125,-0.144531 -0.07031,-0.335938 -0.109375,-0.578125 -1.511719,-0.375 -2.652344,-0.578125 -3.421875,-0.609375 -0.773437,-0.03906 -1.382812,0 -1.828125,0.125 z m 0,0" id="path5349" inkscape:connector-curvature="0"/>
          </g>
        </g>
      </g>
      <g id="text4847-9" style="font-style:normal;font-variant:normal;font-weight:normal;font-stretch:normal;font-size:25.40000153px;line-height:125%;font-family:'Fortune Letters';-inkscape-font-specification:'Fortune Letters, Normal';font-variant-ligatures:normal;font-variant-caps:normal;font-variant-numeric:normal;font-feature-settings:normal;text-align:center;letter-spacing:0px;word-spacing:0px;writing-mode:lr-tb;text-anchor:middle;display:inline;fill:#000000;fill-opacity:1;stroke:none;stroke-width:0.26458332" aria-label="9" transform="translate(-125.3369,-115.29645)">
        <path id="path23128" style="font-style:normal;font-variant:normal;font-weight:normal;font-stretch:normal;font-size:25.40000153px;font-family:'Fortune Letters';-inkscape-font-specification:'Fortune Letters, Normal';font-variant-ligatures:normal;font-variant-caps:normal;font-variant-numeric:normal;font-feature-settings:normal;text-align:center;writing-mode:lr-tb;text-anchor:middle;stroke-width:0.26458332" d="m 394.42129,229.46363 q 0.2794,-0.7366 0.4064,-1.5494 0.1524,-0.8382 0.1016,-1.6764 -0.3556,0.4826 -1.016,0.6858 -0.6096,0.2032 -1.2446,0.4318 -0.635,0.2286 -1.27,0.3556 -0.6096,0.1016 -1.2446,0.0254 -0.635,-0.1016 -1.27,-0.5334 -0.8382,-0.5588 -1.2446,-1.3462 -0.381,-0.8128 -0.4064,-1.7018 -0.0254,-0.889 0.2794,-1.778 0.3302,-0.889 0.9144,-1.5748 0.6096,-0.7112 1.4478,-1.143 0.8382,-0.4572 1.8542,-0.4572 0.6604,0 1.2446,0.3048 0.6096,0.3048 1.2192,0.5334 0.4572,0.2032 0.7874,0.6096 0.3302,0.381 0.6858,0.7366 0.5334,0.5588 0.8382,1.4224 0.3302,0.8636 0.4318,1.8542 0.1016,0.9906 0.0254,2.0828 -0.0762,1.0668 -0.3302,2.0574 -0.2286,0.9906 -0.635,1.8542 -0.381,0.8382 -0.889,1.3716 -0.0508,0.0508 -0.2286,0.254 -0.1524,0.2032 -0.381,0.4572 -0.2032,0.2286 -0.4572,0.4572 -0.254,0.2032 -0.4572,0.3048 -0.4826,0.254 -1.0414,0.508 -0.5588,0.2286 -1.143,0.3556 -0.5842,0.127 -1.1684,0.0762 -0.5842,-0.0508 -1.1176,-0.4318 -0.7112,-0.4826 -1.0922,-1.1684 -0.381,-0.7112 -0.381,-1.4224 0,-0.7366 0.381,-1.3462 0.4064,-0.635 1.2954,-0.9652 0.5588,-0.0762 0.8128,0.127 0.2794,0.1778 0.3048,0.508 0.0254,0.3048 -0.1778,0.6604 -0.2032,0.3556 -0.5588,0.6096 0,0.254 0.1016,0.4064 0.3556,0.8382 1.2446,0.9144 0.635,0.0762 1.1684,-0.1524 0.5334,-0.254 0.9652,-0.6858 0.4318,-0.4318 0.7366,-0.9652 0.3048,-0.5334 0.508,-1.0668 z m 0.0508,-5.588 q -0.2286,-0.5334 -0.5334,-0.9906 -0.2794,-0.381 -0.7112,-0.7366 -0.4318,-0.381 -0.9398,-0.5842 -0.4826,-0.2286 -1.016,-0.254 -0.5334,-0.0254 -1.016,0.2286 -0.4826,0.2794 -0.7112,0.8128 -0.2286,0.508 -0.2286,1.1176 0.0254,0.5842 0.254,1.1176 0.254,0.5334 0.7112,0.7874 0.4064,0.254 0.9652,0.2286 0.5842,-0.0254 1.0922,-0.1524 0.508,-0.1524 0.889,-0.3048 0.381,-0.1524 0.4572,-0.1524 0.2032,-0.2794 0.3556,-0.5588 0.1778,-0.3048 0.4318,-0.5588 z" inkscape:connector-curvature="0"/>
      </g>
    </g>
    </g></svg>
